<svg xmlns="http://www.w3.org/2000/svg" viewBox="0 0 2048 2048" width="2048" height="2048" xmlns:c2pa="http://c2pa.org/manifest"><metadata><c2pa:manifest>AAAWgmp1bWIAAAAeanVtZGMycGEAEQAQgAAAqgA4m3EDYzJwYQAAABZcanVtYgAAAEdqdW1kYzJtYQARABCAAACqADibcQN1cm46YzJwYTpjOTMxMGUyOS01MGFmLTQ3MmEtOGY3ZC03NDhhMGE0NjA5MDkAAAADl2p1bWIAAAApanVtZGMyYXMAEQAQgAAAqgA4m3EDYzJwYS5hc3NlcnRpb25zAAAAALxqdW1iAAAARGp1bWRjYm9yABEAEIAAAKoAOJtxE2MycGEuaW5ncmVkaWVudC52MwAAAAAYYzJzaDoHvvQdxYfIbSAeGQAN7ikAAABwY2JvcqNpZGM6Zm9ybWF0bWltYWdlL3N2Zyt4bWxqaW5zdGFuY2VJRHgseG1wOmlpZDplNmFkODkyMS05ZGJjLTQ3MDItYTZkNC1hZTQ3NzM5NDI3NDVscmVsYXRpb25zaGlwaHBhcmVudE9mAAAB4mp1bWIAAABBanVtZGNib3IAEQAQgAAAqgA4m3ETYzJwYS5hY3Rpb25zLnYyAAAAABhjMnNobgIWKjflQXx/ZLuJhLxHHwAAAZljYm9yomdhY3Rpb25zgqJmYWN0aW9ua2MycGEub3BlbmVkanBhcmFtZXRlcnOha2luZ3JlZGllbnRzgaJjdXJseC1zZWxmI2p1bWJmPWMycGEuYXNzZXJ0aW9ucy9jMnBhLmluZ3JlZGllbnQudjNkaGFzaFgg8Cdprr74iaaHgQ7CaNHiixcWurT6lnocr9NWwys3u2qkZmFjdGlvbngdY29tLmFudGhyb3BpYy5jbGF1ZGUucHJvdmlkZWRqcGFyYW1ldGVyc6F4H2NvbS5hbnRocm9waWMub3JpZ2luLWNvbmZpZGVuY2VndW5rbm93bmtkZXNjcmlwdGlvbnhmQ2xhdWRlIHByb3ZpZGVkIHRoaXMgZmlsZSBhdCB0aGUgcmVxdWVzdCBvZiBhIHVzZXIgYW5kIG1heSBoYXZlIGNyZWF0ZWQgb3IgbW9kaWZpZWQgdGhlIGZpbGUgY29udGVudHMubXNvZnR3YXJlQWdlbnShZG5hbWVmQ2xhdWRlcmFsbEFjdGlvbnNJbmNsdWRlZPUAAADIanVtYgAAAEBqdW1kY2JvcgARABCAAACqADibcRNjMnBhLmhhc2guZGF0YQAAAAAYYzJzaIk5pF3dH1bFQxcfMHnZxB4AAACAY2JvcqVjYWxnZnNoYTI1NmNwYWRNAAAAAAAAAAAAAAAAAGRoYXNoWCArF2JQmOGOot0OL33LQhuJ9GqmzunwXcqS/70D9SUvy2RuYW1lbmp1bWJmIG1hbmlmZXN0amV4Y2x1c2lvbnOBomVzdGFydBiaZmxlbmd0aBkeBAAAAj5qdW1iAAAAJ2p1bWRjMmNsABEAEIAAAKoAOJtxA2MycGEuY2xhaW0udjIAAAACD2Nib3KlY2FsZ2ZzaGEyNTZpc2lnbmF0dXJleE1zZWxmI2p1bWJmPS9jMnBhL3VybjpjMnBhOmM5MzEwZTI5LTUwYWYtNDcyYS04ZjdkLTc0OGEwYTQ2MDkwOS9jMnBhLnNpZ25hdHVyZWppbnN0YW5jZUlEeCx4bXA6aWlkOjdhZDIzZjE0LWFhMzItNDYyMC05NmUyLTU2Y2I3MjQ0YzkzZXJjcmVhdGVkX2Fzc2VydGlvbnODomN1cmx4LXNlbGYjanVtYmY9YzJwYS5hc3NlcnRpb25zL2MycGEuaW5ncmVkaWVudC52M2RoYXNoWCDwJ2muvviJpoeBDsJo0eKLFxa6tPqWehyv01bDKze7aqJjdXJseCpzZWxmI2p1bWJmPWMycGEuYXNzZXJ0aW9ucy9jMnBhLmFjdGlvbnMudjJkaGFzaFgg62RwlEyG5Rac8KM4TvwgbqsBYow2nZrbekiQGCmFDcOiY3VybHgpc2VsZiNqdW1iZj1jMnBhLmFzc2VydGlvbnMvYzJwYS5oYXNoLmRhdGFkaGFzaFggrjAuwtU4Bf00gzgQSFdWN8zskf/K/rNrvKcOZTXg3Zt0Y2xhaW1fZ2VuZXJhdG9yX2luZm+jZG5hbWVvQW50aHJvcGljIEZpbGVzZ3ZlcnNpb25lMS4wLjBrc3BlY1ZlcnNpb25lMi40LjAAABA4anVtYgAAAChqdW1kYzJjcwARABCAAACqADibcQNjMnBhLnNpZ25hdHVyZQAAABAIY2JvctKEWQISogEmGCFZAgowggIGMIIBjaADAgECAhRA5aAK7sI50L64g/oGQgU9Z1UTADAKBggqhkjOPQQDAzBJMRcwFQYDVQQKEw5BbnRocm9waWMsIFBCQzEuMCwGA1UEAxMlQW50aHJvcGljIENvbnRlbnQgQ3JlZGVudGlhbHMgUm9vdCBDQTAeFw0yNjA4MDcxODQzNTZaFw0yODA4MDYxOTQzNTZaMEQxFzAVBgNVBAoTDkFudGhyb3BpYywgUEJDMSkwJwYDVQQDEyBBbnRocm9waWMgQ2xhdWRlIENvbnRlbnQgU2lnbmluZzBZMBMGByqGSM49AgEGCCqGSM49AwEHA0IABJh6CmvLUBgFFNU0vUKlOVtE6djd17L5SuwX0LemFisBM3dkd/3cyjxFA3Qo5S46fX0/ihY0VZ7mfb9KF703t5OjWDBWMA4GA1UdDwEB/wQEAwIHgDAVBgNVHSUEDjAMBgorBgEEAYPoXgIBMAwGA1UdEwEB/wQCMAAwHwYDVR0jBBgwFoAUzlHiBIFOZFsj+OPEz5o+nMHXXMIwCgYIKoZIzj0EAwMDZwAwZAIwMXMdFJ4BetLLVY7ORuE9noqbbAZOZn/aArXyTwFAZfKrPzxF2vPoJNf1+UCdg1XGAjBwX1zd9WGqYkqmL5SFqw1QySjr1zJfpJM9+1rdDwSPLMOPOjKuiXjoU/pUUeG9RwmhY3BhZFkNngAAAAAAAAAAAAAAAAAAAAAAAAAAAAAAAAAAAAAAAAAAAAAAAAAAAAAAAAAAAAAAAAAAAAAAAAAAAAAAAAAAAAAAAAAAAAAAAAAAAAAAAAAAAAAAAAAAAAAAAAAAAAAAAAAAAAAAAAAAAAAAAAAAAAAAAAAAAAAAAAAAAAAAAAAAAAAAAAAAAAAAAAAAAAAAAAAAAAAAAAAAAAAAAAAAAAAAAAAAAAAAAAAAAAAAAAAAAAAAAAAAAAAAAAAAAAAAAAAAAAAAAAAAAAAAAAAAAAAAAAAAAAAAAAAAAAAAAAAAAAAAAAAAAAAAAAAAAAAAAAAAAAAAAAAAAAAAAAAAAAAAAAAAAAAAAAAAAAAAAAAAAAAAAAAAAAAAAAAAAAAAAAAAAAAAAAAAAAAAAAAAAAAAAAAAAAAAAAAAAAAAAAAAAAAAAAAAAAAAAAAAAAAAAAAAAAAAAAAAAAAAAAAAAAAAAAAAAAAAAAAAAAAAAAAAAAAAAAAAAAAAAAAAAAAAAAAAAAAAAAAAAAAAAAAAAAAAAAAAAAAAAAAAAAAAAAAAAAAAAAAAAAAAAAAAAAAAAAAAAAAAAAAAAAAAAAAAAAAAAAAAAAAAAAAAAAAAAAAAAAAAAAAAAAAAAAAAAAAAAAAAAAAAAAAAAAAAAAAAAAAAAAAAAAAAAAAAAAAAAAAAAAAAAAAAAAAAAAAAAAAAAAAAAAAAAAAAAAAAAAAAAAAAAAAAAAAAAAAAAAAAAAAAAAAAAAAAAAAAAAAAAAAAAAAAAAAAAAAAAAAAAAAAAAAAAAAAAAAAAAAAAAAAAAAAAAAAAAAAAAAAAAAAAAAAAAAAAAAAAAAAAAAAAAAAAAAAAAAAAAAAAAAAAAAAAAAAAAAAAAAAAAAAAAAAAAAAAAAAAAAAAAAAAAAAAAAAAAAAAAAAAAAAAAAAAAAAAAAAAAAAAAAAAAAAAAAAAAAAAAAAAAAAAAAAAAAAAAAAAAAAAAAAAAAAAAAAAAAAAAAAAAAAAAAAAAAAAAAAAAAAAAAAAAAAAAAAAAAAAAAAAAAAAAAAAAAAAAAAAAAAAAAAAAAAAAAAAAAAAAAAAAAAAAAAAAAAAAAAAAAAAAAAAAAAAAAAAAAAAAAAAAAAAAAAAAAAAAAAAAAAAAAAAAAAAAAAAAAAAAAAAAAAAAAAAAAAAAAAAAAAAAAAAAAAAAAAAAAAAAAAAAAAAAAAAAAAAAAAAAAAAAAAAAAAAAAAAAAAAAAAAAAAAAAAAAAAAAAAAAAAAAAAAAAAAAAAAAAAAAAAAAAAAAAAAAAAAAAAAAAAAAAAAAAAAAAAAAAAAAAAAAAAAAAAAAAAAAAAAAAAAAAAAAAAAAAAAAAAAAAAAAAAAAAAAAAAAAAAAAAAAAAAAAAAAAAAAAAAAAAAAAAAAAAAAAAAAAAAAAAAAAAAAAAAAAAAAAAAAAAAAAAAAAAAAAAAAAAAAAAAAAAAAAAAAAAAAAAAAAAAAAAAAAAAAAAAAAAAAAAAAAAAAAAAAAAAAAAAAAAAAAAAAAAAAAAAAAAAAAAAAAAAAAAAAAAAAAAAAAAAAAAAAAAAAAAAAAAAAAAAAAAAAAAAAAAAAAAAAAAAAAAAAAAAAAAAAAAAAAAAAAAAAAAAAAAAAAAAAAAAAAAAAAAAAAAAAAAAAAAAAAAAAAAAAAAAAAAAAAAAAAAAAAAAAAAAAAAAAAAAAAAAAAAAAAAAAAAAAAAAAAAAAAAAAAAAAAAAAAAAAAAAAAAAAAAAAAAAAAAAAAAAAAAAAAAAAAAAAAAAAAAAAAAAAAAAAAAAAAAAAAAAAAAAAAAAAAAAAAAAAAAAAAAAAAAAAAAAAAAAAAAAAAAAAAAAAAAAAAAAAAAAAAAAAAAAAAAAAAAAAAAAAAAAAAAAAAAAAAAAAAAAAAAAAAAAAAAAAAAAAAAAAAAAAAAAAAAAAAAAAAAAAAAAAAAAAAAAAAAAAAAAAAAAAAAAAAAAAAAAAAAAAAAAAAAAAAAAAAAAAAAAAAAAAAAAAAAAAAAAAAAAAAAAAAAAAAAAAAAAAAAAAAAAAAAAAAAAAAAAAAAAAAAAAAAAAAAAAAAAAAAAAAAAAAAAAAAAAAAAAAAAAAAAAAAAAAAAAAAAAAAAAAAAAAAAAAAAAAAAAAAAAAAAAAAAAAAAAAAAAAAAAAAAAAAAAAAAAAAAAAAAAAAAAAAAAAAAAAAAAAAAAAAAAAAAAAAAAAAAAAAAAAAAAAAAAAAAAAAAAAAAAAAAAAAAAAAAAAAAAAAAAAAAAAAAAAAAAAAAAAAAAAAAAAAAAAAAAAAAAAAAAAAAAAAAAAAAAAAAAAAAAAAAAAAAAAAAAAAAAAAAAAAAAAAAAAAAAAAAAAAAAAAAAAAAAAAAAAAAAAAAAAAAAAAAAAAAAAAAAAAAAAAAAAAAAAAAAAAAAAAAAAAAAAAAAAAAAAAAAAAAAAAAAAAAAAAAAAAAAAAAAAAAAAAAAAAAAAAAAAAAAAAAAAAAAAAAAAAAAAAAAAAAAAAAAAAAAAAAAAAAAAAAAAAAAAAAAAAAAAAAAAAAAAAAAAAAAAAAAAAAAAAAAAAAAAAAAAAAAAAAAAAAAAAAAAAAAAAAAAAAAAAAAAAAAAAAAAAAAAAAAAAAAAAAAAAAAAAAAAAAAAAAAAAAAAAAAAAAAAAAAAAAAAAAAAAAAAAAAAAAAAAAAAAAAAAAAAAAAAAAAAAAAAAAAAAAAAAAAAAAAAAAAAAAAAAAAAAAAAAAAAAAAAAAAAAAAAAAAAAAAAAAAAAAAAAAAAAAAAAAAAAAAAAAAAAAAAAAAAAAAAAAAAAAAAAAAAAAAAAAAAAAAAAAAAAAAAAAAAAAAAAAAAAAAAAAAAAAAAAAAAAAAAAAAAAAAAAAAAAAAAAAAAAAAAAAAAAAAAAAAAAAAAAAAAAAAAAAAAAAAAAAAAAAAAAAAAAAAAAAAAAAAAAAAAAAAAAAAAAAAAAAAAAAAAAAAAAAAAAAAAAAAAAAAAAAAAAAAAAAAAAAAAAAAAAAAAAAAAAAAAAAAAAAAAAAAAAAAAAAAAAAAAAAAAAAAAAAAAAAAAAAAAAAAAAAAAAAAAAAAAAAAAAAAAAAAAAAAAAAAAAAAAAAAAAAAAAAAAAAAAAAAAAAAAAAAAAAAAAAAAAAAAAAAAAAAAAAAAAAAAAAAAAAAAAAAAAAAAAAAAAAAAAAAAAAAAAAAAAAAAAAAAAAAAAAAAAAAAAAAAAAAAAAAAAAAAAAAAAAAAAAAAAAAAAAAAAAAAAAAAAAAAAAAAAAAAAAAAAAAAAAAAAAAAAAAAAAAAAAAAAAAAAAAAAAAAAAAAAAAAAAAAAAAAAAAAAAAAAAAAAAAAAAAAAAAAAAAAAAAAAAAAAAAAAAAAAAAAAAAAAAAAAAAAAAAAAAAAAAAAAAAAAAAAAAAAAAAAAAAAAAAAAAAAAAAAAAAAAAAAAAAAAAAAAAAAAAAAAAAAAAAAAAAAAAAAAAAAAAAAAAAAAAAAAAAAAAAAAAAAAAAAAAAAAAAAAAAAAAAAAAAAAAAAAAAAAAAAAAAAAAAAAAAAAAAAAAAAAAAAAAAAAAAAAAAAAAAAAAAAAAAAAAAAAAAAAAAAAAAAAAAAAAAAAAAAAAAAAAAAAAAAAAAAAAAAAAAAAAAAAAAAAAAAAAAAAAAAAAAAAAAAAAAAAAAAAAAAAAAAAAAAAAAAAAAAAAAAAAAAAAAAAAAAAAAAAAAAAAAAAAAAAAAAAAAAAAAAAAAAAAAAAAAAAAAAAAAAAAAAAAAAAAAAAAAAAAAAAAAAAAAAAAAAAAAAAAAAAAAAAAAAAAAAAAAAAAAAAAAAAAAAAAAAAAAAAAAAAAAAAAAAAAAAAAAAAAAAAAAAAAAAAAAAAAAAAAAAAAAAAAAAAAAAAAAAAAAAAAAAAAAAAAAAAAAAAAAAAAAAAAAAAAAAAAAAAAAAAAAAAAAAAAAAAAAAAAAAAAAAAAAAAAAAAAAAAAAAAAAAAAAAAAAAAAAAAAAAAAAAAAAAAAAAAAAAAAAAAAAAAAAAAAAAAAAAAAAAAAAAAAAAAAAAAAAAAAAAAAAAAAAAAAAAAAAAAAAAAAAAAAAAAAAAAAAAAAAAAAAAAAAAAAAAAAAAAAAAAAAAAAAAAAAAAAAAAAAAAAAAAAAAAAAAAAAAAAAAAAAAAAAAAAAAAAAAAAAAAAAAAAAAAAAAAAAAAAAAAAAAAAAAAAAAAAAAAAAAAAAAAAAAAAAAAAAAAAAAAAAAAAAAAAAAAAAAAAAAAAAAAAAAAAAAAAAAAAAAAAAAAAAAAAAAAAAAAAAAAAAAAAAAAAAAAAAAAAAAAAAAAAAAAAAAAAAAAAAAAAAAAAAAAAAAAAAAAAAAAAAAAAAAAAAAAAAAAAAAAAAAAAAAAAAAAAAAAAAAAAAAAAAAAAAAAAAAAAAAAAAAAAAAAAAAAAAAAAAAAAAAAAAAAAAAAAAAAAAAAAAAAAAAAAAAAAAAAAAAAAAAAAAAAAAAAAAAAAAAAAAAAAAAAAAAAAAAAAAAAAAAAAAAAAAAAAAAAAAAAAAAAAAAAAAAAAAAAAAAAAAAAAAAAAAAAAAAAAAAAAAAAAAAAAAAAAAAAAAAAAAAAAAAAAAAAAAAAAAAAAAAAAAAAAAAAAAAAAAAAAAPZYQOMXBoFZkn2dIxfkR/t5r/h9eqvv3kvuP+wcL7XiPxx26lVOpdavOGu/6gKRD8VL8Bpc481mADjgyUTBW/zYrbg=</c2pa:manifest></metadata>
<defs>
<linearGradient id="hullG" x1="0" y1="0" x2="1" y2="0">
<stop offset="0" stop-color="#237c22"></stop><stop offset=".35" stop-color="#6cd860"></stop><stop offset=".72" stop-color="#4cb545"></stop><stop offset="1" stop-color="#3ca238"></stop></linearGradient>
<linearGradient id="hullG2" x1="0" y1="0" x2="1" y2="0">
<stop offset="0" stop-color="#3ca238"></stop><stop offset=".42" stop-color="#6cd860"></stop><stop offset="1" stop-color="#4cb545"></stop></linearGradient>
<linearGradient id="blueG" x1="0" y1="0" x2="1" y2="0">
<stop offset="0" stop-color="#041e04"></stop><stop offset=".45" stop-color="#1c6e1c"></stop><stop offset="1" stop-color="#0a340a"></stop></linearGradient>
<linearGradient id="doorG" x1="0" y1="0" x2="1" y2="0">
<stop offset="0" stop-color="#3ca238"></stop><stop offset=".4" stop-color="#6cd860"></stop><stop offset="1" stop-color="#4cb545"></stop></linearGradient>
<radialGradient id="embPlate" cx="45%" cy="38%"><stop offset="0" stop-color="#6fd96a"></stop><stop offset=".65" stop-color="#1f6b2a"></stop><stop offset="1" stop-color="#020803"></stop></radialGradient>
<radialGradient id="embRing">
<stop offset=".58" stop-color="#d6f5d0" stop-opacity="0"></stop><stop offset=".78" stop-color="#d6f5d0" stop-opacity=".6"></stop><stop offset="1" stop-color="#d6f5d0" stop-opacity="0"></stop></radialGradient>
</defs>

<g id="ship">
<g id="halfL">
<path d="M382 500 L382 1392 L402 1470 L738 1470 L758 1392 L758 500 Z" fill="url(#hullG)" stroke="#031803" stroke-width="9"></path>
<path d="M418 388 L722 388 L746 424 L746 500 L394 500 L394 424 Z" fill="url(#blueG)" stroke="#031803" stroke-width="8"></path>
<rect x="436" y="404" width="268" height="58" rx="6" fill="url(#hullG2)" opacity="1" stroke="#031803" stroke-width="3"></rect>
<rect x="486" y="368" width="68" height="26" rx="5" fill="#3ca238" opacity="1" stroke="#031803" stroke-width="3"></rect>
<rect x="586" y="368" width="68" height="26" rx="5" fill="#3ca238" opacity="1" stroke="#031803" stroke-width="3"></rect>

<rect x="436" y="560" width="126" height="368" rx="6" fill="url(#doorG)" opacity="1" stroke="#031803" stroke-width="3"></rect>
<rect x="570" y="560" width="126" height="368" rx="6" fill="url(#doorG)" opacity="1" stroke="#031803" stroke-width="3"></rect>
<path d="M462 582 L462 906" stroke="#031803" stroke-width="4" opacity=".55"></path>
<path d="M678 582 L678 906" stroke="#031803" stroke-width="4" opacity=".55"></path>
<path d="M492 590 l30 -18 l0 44 l-30 18 Z" fill="#3ca238" opacity=".7" stroke="#031803" stroke-width="3"></path>
<path d="M648 898 l-30 18 l0 -44 l30 -18 Z" fill="#3ca238" opacity=".7" stroke="#031803" stroke-width="3"></path>

<rect x="414" y="942" width="312" height="52" rx="5" fill="#3ca238" opacity="0.95" stroke="#031803" stroke-width="3"></rect>
<rect x="420" y="952" width="44" height="32" rx="4" fill="#237c22" opacity="1" stroke="#031803" stroke-width="3"></rect>
<rect x="676" y="952" width="44" height="32" rx="4" fill="#237c22" opacity="1" stroke="#031803" stroke-width="3"></rect>
<path d="M492 950 l40 36 M532 950 l-40 36 M572 950 l40 36 M612 950 l-40 36 M652 950 l40 36" stroke="#031803" stroke-width="5" opacity=".8"></path>

<rect x="436" y="1010" width="126" height="300" rx="6" fill="url(#doorG)" opacity="1" stroke="#031803" stroke-width="3"></rect>
<rect x="570" y="1010" width="126" height="300" rx="6" fill="url(#doorG)" opacity="1" stroke="#031803" stroke-width="3"></rect>
<path d="M462 1032 L462 1288" stroke="#031803" stroke-width="4" opacity=".55"></path>
<path d="M678 1032 L678 1288" stroke="#031803" stroke-width="4" opacity=".55"></path>
<path d="M492 1040 l30 -18 l0 44 l-30 18 Z" fill="#3ca238" opacity=".7" stroke="#031803" stroke-width="3"></path>
<path d="M648 1280 l-30 18 l0 -44 l30 -18 Z" fill="#3ca238" opacity=".7" stroke="#031803" stroke-width="3"></path>
<rect x="436" y="1336" width="268" height="96" rx="8" fill="url(#hullG2)" opacity="1" stroke="#031803" stroke-width="3"></rect>
<path d="M492 1360 l40 -16 l112 0 l40 16 l0 44 l-40 16 l-112 0 l-40 -16 Z" fill="#3ca238" opacity=".8" stroke="#031803" stroke-width="4"></path>

<rect x="414" y="520" width="312" height="52" rx="5" fill="#3ca238" opacity="0.95" stroke="#031803" stroke-width="3"></rect>
<rect x="420" y="530" width="44" height="32" rx="4" fill="#237c22" opacity="1" stroke="#031803" stroke-width="3"></rect>
<rect x="676" y="530" width="44" height="32" rx="4" fill="#237c22" opacity="1" stroke="#031803" stroke-width="3"></rect>
<path d="M492 528 l40 36 M532 528 l-40 36 M572 528 l40 36 M612 528 l-40 36 M652 528 l40 36" stroke="#031803" stroke-width="5" opacity=".8"></path>

<rect x="414" y="1300" width="312" height="52" rx="5" fill="#3ca238" opacity="0.95" stroke="#031803" stroke-width="3"></rect>
<rect x="420" y="1310" width="44" height="32" rx="4" fill="#237c22" opacity="1" stroke="#031803" stroke-width="3"></rect>
<rect x="676" y="1310" width="44" height="32" rx="4" fill="#237c22" opacity="1" stroke="#031803" stroke-width="3"></rect>
<path d="M492 1308 l40 36 M532 1308 l-40 36 M572 1308 l40 36 M612 1308 l-40 36 M652 1308 l40 36" stroke="#031803" stroke-width="5" opacity=".8"></path>
<path d="M402 1470 L436 1546 L704 1546 L738 1470 Z" fill="url(#blueG)" stroke="#031803" stroke-width="7"></path>
<rect x="446" y="1476" width="72" height="62" rx="4" fill="#3ca238" opacity="0.85" stroke="#031803" stroke-width="3"></rect><rect x="542" y="1476" width="72" height="62" rx="4" fill="#3ca238" opacity="0.85" stroke="#031803" stroke-width="3"></rect><rect x="638" y="1476" width="72" height="62" rx="4" fill="#3ca238" opacity="0.85" stroke="#031803" stroke-width="3"></rect>
<path d="M382 500 L382 1392" fill="none" stroke="#6cd860" stroke-width="7" opacity=".5"></path>
<circle cx="418" cy="540" r="6" fill="#3ca238" stroke="#031803" stroke-width="2.5"></circle><circle cx="722" cy="540" r="6" fill="#3ca238" stroke="#031803" stroke-width="2.5"></circle><circle cx="418" cy="1320" r="6" fill="#3ca238" stroke="#031803" stroke-width="2.5"></circle><circle cx="722" cy="1320" r="6" fill="#3ca238" stroke="#031803" stroke-width="2.5"></circle><circle cx="418" cy="930" r="6" fill="#3ca238" stroke="#031803" stroke-width="2.5"></circle><circle cx="722" cy="930" r="6" fill="#3ca238" stroke="#031803" stroke-width="2.5"></circle>
<rect x="744" y="700" width="64" height="190" rx="6" fill="url(#hullG2)" opacity="1" stroke="#031803" stroke-width="7"></rect>
<rect x="744" y="1080" width="64" height="190" rx="6" fill="url(#hullG2)" opacity="1" stroke="#031803" stroke-width="7"></rect>
<path d="M756 720 h40 M756 760 h40 M756 800 h40" stroke="#031803" stroke-width="4" opacity=".6"></path>
<path d="M756 1100 h40 M756 1140 h40 M756 1180 h40" stroke="#031803" stroke-width="4" opacity=".6"></path>
<path d="M1024 108 L950 116 L900 156 L878 236 L868 340 L864 470 L1024 470 Z" fill="url(#hullG)" stroke="#031803" stroke-width="9"></path>
<path d="M1024 160 L968 168 L932 200 L916 268 L908 360 L906 462 L1024 462 Z" fill="url(#blueG)" stroke="#031803" stroke-width="6"></path>
<path d="M1024 232 L990 240 L972 268 L964 330 L962 452 L1024 452 Z" fill="url(#hullG2)" stroke="#031803" stroke-width="5"></path>
<path d="M1024 456 L864 456 L820 486 L798 560 L790 700 L790 1400 L802 1476 L840 1520 L1024 1520 Z" fill="url(#hullG)" stroke="#031803" stroke-width="9"></path>
<path d="M1024 520 L858 520 L832 560 L822 660 L822 1360 L836 1440 L868 1478 L1024 1478 Z" fill="url(#blueG)" stroke="#031803" stroke-width="6" opacity=".92"></path>
<path d="M1024 596 L900 596 L878 640 L872 720 L872 1320 L888 1396 L1024 1420 Z" fill="url(#hullG2)" stroke="#031803" stroke-width="5"></path>
<rect x="806" y="600" width="86" height="150" rx="5" fill="#3ca238" opacity="0.7" stroke="#031803" stroke-width="3"></rect>
<rect x="806" y="800" width="86" height="120" rx="5" fill="#0a340a" opacity="0.6" stroke="#031803" stroke-width="3"></rect>
<rect x="806" y="1160" width="86" height="150" rx="5" fill="#3ca238" opacity="0.6" stroke="#031803" stroke-width="3"></rect>
<rect x="896" y="660" width="72" height="120" rx="5" fill="#3ca238" opacity="0.55" stroke="#031803" stroke-width="3"></rect>
<rect x="896" y="1240" width="72" height="140" rx="5" fill="#3ca238" opacity="0.5" stroke="#031803" stroke-width="3"></rect>
<path d="M864 456 L820 486 L798 560" fill="none" stroke="#6cd860" stroke-width="8" opacity=".55"></path>
<path d="M900 156 L878 236 L868 340" fill="none" stroke="#6cd860" stroke-width="6" opacity=".5"></path>
<circle cx="856" cy="560" r="6" fill="#3ca238" stroke="#031803" stroke-width="2.5"></circle><circle cx="848" cy="900" r="6" fill="#3ca238" stroke="#031803" stroke-width="2.5"></circle><circle cx="848" cy="1280" r="6" fill="#3ca238" stroke="#031803" stroke-width="2.5"></circle><circle cx="930" cy="640" r="6" fill="#3ca238" stroke="#031803" stroke-width="2.5"></circle><circle cx="930" cy="1340" r="6" fill="#3ca238" stroke="#031803" stroke-width="2.5"></circle>
<path d="M1024 1520 L840 1520 L800 1580 L790 1700 L806 1810 L860 1880 L1024 1908 Z" fill="url(#hullG)" stroke="#031803" stroke-width="9"></path>
<path d="M1024 1576 L868 1576 L840 1626 L832 1720 L846 1810 L890 1866 L1024 1888 Z" fill="url(#blueG)" stroke="#031803" stroke-width="6" opacity=".9"></path>
<rect x="852" y="1640" width="90" height="120" rx="6" fill="#3ca238" opacity="0.6" stroke="#031803" stroke-width="3"></rect>
<rect x="866" y="1790" width="80" height="64" rx="5" fill="#3ca238" opacity="0.5" stroke="#031803" stroke-width="3"></rect>
<circle cx="884" cy="1610" r="6" fill="#3ca238" stroke="#031803" stroke-width="2.5"></circle><circle cx="876" cy="1760" r="6" fill="#3ca238" stroke="#031803" stroke-width="2.5"></circle></g>
<use href="#halfL" transform="translate(2048 0) scale(-1 1)"></use>
<g id="spine">
<path d="M956 120 L1092 120 L1104 200 L1098 300 L950 300 L944 200 Z" fill="url(#hullG2)" stroke="#031803" stroke-width="7"></path>
<rect x="978" y="150" width="92" height="120" rx="5" fill="#3ca238" opacity="0.7" stroke="#031803" stroke-width="3"></rect>
<path d="M962 330 L1086 330 L1094 430 L1080 470 L968 470 L954 430 Z" fill="url(#blueG)" stroke="#031803" stroke-width="6"></path>
<path d="M968 500 L1080 500 L1092 620 L1078 700 L970 700 L956 620 Z" fill="url(#hullG2)" stroke="#031803" stroke-width="6"></path>
<rect x="986" y="530" width="76" height="140" rx="5" fill="#3ca238" opacity="0.6" stroke="#031803" stroke-width="3"></rect>
<path d="M950 1300 L1098 1300 L1108 1420 L1092 1500 L956 1500 L940 1420 Z" fill="url(#hullG2)" stroke="#031803" stroke-width="6"></path>
<rect x="972" y="1330" width="104" height="140" rx="5" fill="#3ca238" opacity="0.55" stroke="#031803" stroke-width="3"></rect>
<path d="M958 1560 L1090 1560 L1102 1700 L1086 1810 L962 1810 L946 1700 Z" fill="url(#hullG2)" stroke="#031803" stroke-width="6"></path>
<rect x="980" y="1600" width="88" height="170" rx="5" fill="#020803" opacity="0.5" stroke="#031803" stroke-width="3"></rect>
<path d="M964 1852 L1084 1852 L1072 1936 L976 1936 Z" fill="url(#blueG)" stroke="#031803" stroke-width="6"></path>
<circle cx="1024" cy="1000" r="230" fill="url(#embPlate)" stroke="#031803" stroke-width="7"></circle>
<circle cx="1024" cy="1000" r="196" fill="#020803" stroke="#031803" stroke-width="8"></circle>
<circle cx="1024" cy="1000" r="184" fill="none" stroke="#d6f5d0" stroke-width="9" opacity=".95"></circle>
<circle cx="1024" cy="1000" r="166" fill="#020803"></circle>
<text x="1024" y="1086" text-anchor="middle" font-family="Arial Black, Arial, Helvetica, sans-serif" font-weight="900" font-size="252" fill="#ffffff">J</text>
<text x="1024" y="1086" text-anchor="middle" font-family="Arial Black, Arial, Helvetica, sans-serif" font-weight="900" font-size="252" fill="none" stroke="#081f0d" stroke-width="6" opacity=".85">J</text></g>
<path d="M334 1504 L260 1620 L376 1541 Z" fill="#1f6b2a" stroke="#010502" stroke-width="7"></path><path d="M430 1588 L326 1678 L388 1551 Z" fill="#1f6b2a" stroke="#010502" stroke-width="7"></path><path d="M408 1516 L342 1458 L420 1502 Z" fill="#3f9b46" stroke="#010502" stroke-width="5"></path><path d="M428 1493 L362 1435 L440 1479 Z" fill="#3f9b46" stroke="#010502" stroke-width="5"></path><path d="M382 1546 L293 1649" stroke="#d6f5d0" stroke-width="6" opacity=".85"></path></g>
<g id="glow">
<circle cx="1024" cy="1000" r="306" fill="url(#embRing)" opacity=".6"></circle>
</g>
</svg>