<svg xmlns="http://www.w3.org/2000/svg" viewBox="0 0 2048 2048" width="2048" height="2048" xmlns:c2pa="http://c2pa.org/manifest"><metadata><c2pa:manifest>AAAWgmp1bWIAAAAeanVtZGMycGEAEQAQgAAAqgA4m3EDYzJwYQAAABZcanVtYgAAAEdqdW1kYzJtYQARABCAAACqADibcQN1cm46YzJwYTpiZmM5YzM1Ny1lN2ZmLTQ1NGItOTgyYS1kMTEzZjEyMDY1YjcAAAADl2p1bWIAAAApanVtZGMyYXMAEQAQgAAAqgA4m3EDYzJwYS5hc3NlcnRpb25zAAAAALxqdW1iAAAARGp1bWRjYm9yABEAEIAAAKoAOJtxE2MycGEuaW5ncmVkaWVudC52MwAAAAAYYzJzaJXmWyoLW10YpL90AUsU5nMAAABwY2JvcqNpZGM6Zm9ybWF0bWltYWdlL3N2Zyt4bWxqaW5zdGFuY2VJRHgseG1wOmlpZDo0NGFmYTRkNS04MTg2LTRhZmYtOGY3YS1iNmVlY2YxMWUxNWZscmVsYXRpb25zaGlwaHBhcmVudE9mAAAB4mp1bWIAAABBanVtZGNib3IAEQAQgAAAqgA4m3ETYzJwYS5hY3Rpb25zLnYyAAAAABhjMnNoTkMPYXhi5mbxCjMTKLzPYAAAAZljYm9yomdhY3Rpb25zgqJmYWN0aW9ua2MycGEub3BlbmVkanBhcmFtZXRlcnOha2luZ3JlZGllbnRzgaJjdXJseC1zZWxmI2p1bWJmPWMycGEuYXNzZXJ0aW9ucy9jMnBhLmluZ3JlZGllbnQudjNkaGFzaFggpfqVKX007ePzcjjeZKlTHG2TjeTVztWJq2dONpKLv3qkZmFjdGlvbngdY29tLmFudGhyb3BpYy5jbGF1ZGUucHJvdmlkZWRqcGFyYW1ldGVyc6F4H2NvbS5hbnRocm9waWMub3JpZ2luLWNvbmZpZGVuY2VndW5rbm93bmtkZXNjcmlwdGlvbnhmQ2xhdWRlIHByb3ZpZGVkIHRoaXMgZmlsZSBhdCB0aGUgcmVxdWVzdCBvZiBhIHVzZXIgYW5kIG1heSBoYXZlIGNyZWF0ZWQgb3IgbW9kaWZpZWQgdGhlIGZpbGUgY29udGVudHMubXNvZnR3YXJlQWdlbnShZG5hbWVmQ2xhdWRlcmFsbEFjdGlvbnNJbmNsdWRlZPUAAADIanVtYgAAAEBqdW1kY2JvcgARABCAAACqADibcRNjMnBhLmhhc2guZGF0YQAAAAAYYzJzaMwiOgRv+P0/G1odrysT0g8AAACAY2JvcqVjYWxnZnNoYTI1NmNwYWRNAAAAAAAAAAAAAAAAAGRoYXNoWCAJ4cQGWiUsH2FWu0h6lKvZi212DzALtNagrPQlJj5Qm2RuYW1lbmp1bWJmIG1hbmlmZXN0amV4Y2x1c2lvbnOBomVzdGFydBiaZmxlbmd0aBkeBAAAAj5qdW1iAAAAJ2p1bWRjMmNsABEAEIAAAKoAOJtxA2MycGEuY2xhaW0udjIAAAACD2Nib3KlY2FsZ2ZzaGEyNTZpc2lnbmF0dXJleE1zZWxmI2p1bWJmPS9jMnBhL3VybjpjMnBhOmJmYzljMzU3LWU3ZmYtNDU0Yi05ODJhLWQxMTNmMTIwNjViNy9jMnBhLnNpZ25hdHVyZWppbnN0YW5jZUlEeCx4bXA6aWlkOjI0ZDUzYTZiLTUzYmItNDliMC05NDg1LWEyNGJhNzBmZjRkZXJjcmVhdGVkX2Fzc2VydGlvbnODomN1cmx4LXNlbGYjanVtYmY9YzJwYS5hc3NlcnRpb25zL2MycGEuaW5ncmVkaWVudC52M2RoYXNoWCCl+pUpfTTt4/NyON5kqVMcbZON5NXO1YmrZ042kou/eqJjdXJseCpzZWxmI2p1bWJmPWMycGEuYXNzZXJ0aW9ucy9jMnBhLmFjdGlvbnMudjJkaGFzaFgg4ddxhChkOFQzi+zD95RBtdZa5hsS7dobI9J82YAND9yiY3VybHgpc2VsZiNqdW1iZj1jMnBhLmFzc2VydGlvbnMvYzJwYS5oYXNoLmRhdGFkaGFzaFggHRp3IDY5N5tn7w+QIEQ7f6arPF8b179ilRRSMSlmh1t0Y2xhaW1fZ2VuZXJhdG9yX2luZm+jZG5hbWVvQW50aHJvcGljIEZpbGVzZ3ZlcnNpb25lMS4wLjBrc3BlY1ZlcnNpb25lMi40LjAAABA4anVtYgAAAChqdW1kYzJjcwARABCAAACqADibcQNjMnBhLnNpZ25hdHVyZQAAABAIY2JvctKEWQISogEmGCFZAgowggIGMIIBjaADAgECAhRA5aAK7sI50L64g/oGQgU9Z1UTADAKBggqhkjOPQQDAzBJMRcwFQYDVQQKEw5BbnRocm9waWMsIFBCQzEuMCwGA1UEAxMlQW50aHJvcGljIENvbnRlbnQgQ3JlZGVudGlhbHMgUm9vdCBDQTAeFw0yNjA4MDcxODQzNTZaFw0yODA4MDYxOTQzNTZaMEQxFzAVBgNVBAoTDkFudGhyb3BpYywgUEJDMSkwJwYDVQQDEyBBbnRocm9waWMgQ2xhdWRlIENvbnRlbnQgU2lnbmluZzBZMBMGByqGSM49AgEGCCqGSM49AwEHA0IABJh6CmvLUBgFFNU0vUKlOVtE6djd17L5SuwX0LemFisBM3dkd/3cyjxFA3Qo5S46fX0/ihY0VZ7mfb9KF703t5OjWDBWMA4GA1UdDwEB/wQEAwIHgDAVBgNVHSUEDjAMBgorBgEEAYPoXgIBMAwGA1UdEwEB/wQCMAAwHwYDVR0jBBgwFoAUzlHiBIFOZFsj+OPEz5o+nMHXXMIwCgYIKoZIzj0EAwMDZwAwZAIwMXMdFJ4BetLLVY7ORuE9noqbbAZOZn/aArXyTwFAZfKrPzxF2vPoJNf1+UCdg1XGAjBwX1zd9WGqYkqmL5SFqw1QySjr1zJfpJM9+1rdDwSPLMOPOjKuiXjoU/pUUeG9RwmhY3BhZFkNngAAAAAAAAAAAAAAAAAAAAAAAAAAAAAAAAAAAAAAAAAAAAAAAAAAAAAAAAAAAAAAAAAAAAAAAAAAAAAAAAAAAAAAAAAAAAAAAAAAAAAAAAAAAAAAAAAAAAAAAAAAAAAAAAAAAAAAAAAAAAAAAAAAAAAAAAAAAAAAAAAAAAAAAAAAAAAAAAAAAAAAAAAAAAAAAAAAAAAAAAAAAAAAAAAAAAAAAAAAAAAAAAAAAAAAAAAAAAAAAAAAAAAAAAAAAAAAAAAAAAAAAAAAAAAAAAAAAAAAAAAAAAAAAAAAAAAAAAAAAAAAAAAAAAAAAAAAAAAAAAAAAAAAAAAAAAAAAAAAAAAAAAAAAAAAAAAAAAAAAAAAAAAAAAAAAAAAAAAAAAAAAAAAAAAAAAAAAAAAAAAAAAAAAAAAAAAAAAAAAAAAAAAAAAAAAAAAAAAAAAAAAAAAAAAAAAAAAAAAAAAAAAAAAAAAAAAAAAAAAAAAAAAAAAAAAAAAAAAAAAAAAAAAAAAAAAAAAAAAAAAAAAAAAAAAAAAAAAAAAAAAAAAAAAAAAAAAAAAAAAAAAAAAAAAAAAAAAAAAAAAAAAAAAAAAAAAAAAAAAAAAAAAAAAAAAAAAAAAAAAAAAAAAAAAAAAAAAAAAAAAAAAAAAAAAAAAAAAAAAAAAAAAAAAAAAAAAAAAAAAAAAAAAAAAAAAAAAAAAAAAAAAAAAAAAAAAAAAAAAAAAAAAAAAAAAAAAAAAAAAAAAAAAAAAAAAAAAAAAAAAAAAAAAAAAAAAAAAAAAAAAAAAAAAAAAAAAAAAAAAAAAAAAAAAAAAAAAAAAAAAAAAAAAAAAAAAAAAAAAAAAAAAAAAAAAAAAAAAAAAAAAAAAAAAAAAAAAAAAAAAAAAAAAAAAAAAAAAAAAAAAAAAAAAAAAAAAAAAAAAAAAAAAAAAAAAAAAAAAAAAAAAAAAAAAAAAAAAAAAAAAAAAAAAAAAAAAAAAAAAAAAAAAAAAAAAAAAAAAAAAAAAAAAAAAAAAAAAAAAAAAAAAAAAAAAAAAAAAAAAAAAAAAAAAAAAAAAAAAAAAAAAAAAAAAAAAAAAAAAAAAAAAAAAAAAAAAAAAAAAAAAAAAAAAAAAAAAAAAAAAAAAAAAAAAAAAAAAAAAAAAAAAAAAAAAAAAAAAAAAAAAAAAAAAAAAAAAAAAAAAAAAAAAAAAAAAAAAAAAAAAAAAAAAAAAAAAAAAAAAAAAAAAAAAAAAAAAAAAAAAAAAAAAAAAAAAAAAAAAAAAAAAAAAAAAAAAAAAAAAAAAAAAAAAAAAAAAAAAAAAAAAAAAAAAAAAAAAAAAAAAAAAAAAAAAAAAAAAAAAAAAAAAAAAAAAAAAAAAAAAAAAAAAAAAAAAAAAAAAAAAAAAAAAAAAAAAAAAAAAAAAAAAAAAAAAAAAAAAAAAAAAAAAAAAAAAAAAAAAAAAAAAAAAAAAAAAAAAAAAAAAAAAAAAAAAAAAAAAAAAAAAAAAAAAAAAAAAAAAAAAAAAAAAAAAAAAAAAAAAAAAAAAAAAAAAAAAAAAAAAAAAAAAAAAAAAAAAAAAAAAAAAAAAAAAAAAAAAAAAAAAAAAAAAAAAAAAAAAAAAAAAAAAAAAAAAAAAAAAAAAAAAAAAAAAAAAAAAAAAAAAAAAAAAAAAAAAAAAAAAAAAAAAAAAAAAAAAAAAAAAAAAAAAAAAAAAAAAAAAAAAAAAAAAAAAAAAAAAAAAAAAAAAAAAAAAAAAAAAAAAAAAAAAAAAAAAAAAAAAAAAAAAAAAAAAAAAAAAAAAAAAAAAAAAAAAAAAAAAAAAAAAAAAAAAAAAAAAAAAAAAAAAAAAAAAAAAAAAAAAAAAAAAAAAAAAAAAAAAAAAAAAAAAAAAAAAAAAAAAAAAAAAAAAAAAAAAAAAAAAAAAAAAAAAAAAAAAAAAAAAAAAAAAAAAAAAAAAAAAAAAAAAAAAAAAAAAAAAAAAAAAAAAAAAAAAAAAAAAAAAAAAAAAAAAAAAAAAAAAAAAAAAAAAAAAAAAAAAAAAAAAAAAAAAAAAAAAAAAAAAAAAAAAAAAAAAAAAAAAAAAAAAAAAAAAAAAAAAAAAAAAAAAAAAAAAAAAAAAAAAAAAAAAAAAAAAAAAAAAAAAAAAAAAAAAAAAAAAAAAAAAAAAAAAAAAAAAAAAAAAAAAAAAAAAAAAAAAAAAAAAAAAAAAAAAAAAAAAAAAAAAAAAAAAAAAAAAAAAAAAAAAAAAAAAAAAAAAAAAAAAAAAAAAAAAAAAAAAAAAAAAAAAAAAAAAAAAAAAAAAAAAAAAAAAAAAAAAAAAAAAAAAAAAAAAAAAAAAAAAAAAAAAAAAAAAAAAAAAAAAAAAAAAAAAAAAAAAAAAAAAAAAAAAAAAAAAAAAAAAAAAAAAAAAAAAAAAAAAAAAAAAAAAAAAAAAAAAAAAAAAAAAAAAAAAAAAAAAAAAAAAAAAAAAAAAAAAAAAAAAAAAAAAAAAAAAAAAAAAAAAAAAAAAAAAAAAAAAAAAAAAAAAAAAAAAAAAAAAAAAAAAAAAAAAAAAAAAAAAAAAAAAAAAAAAAAAAAAAAAAAAAAAAAAAAAAAAAAAAAAAAAAAAAAAAAAAAAAAAAAAAAAAAAAAAAAAAAAAAAAAAAAAAAAAAAAAAAAAAAAAAAAAAAAAAAAAAAAAAAAAAAAAAAAAAAAAAAAAAAAAAAAAAAAAAAAAAAAAAAAAAAAAAAAAAAAAAAAAAAAAAAAAAAAAAAAAAAAAAAAAAAAAAAAAAAAAAAAAAAAAAAAAAAAAAAAAAAAAAAAAAAAAAAAAAAAAAAAAAAAAAAAAAAAAAAAAAAAAAAAAAAAAAAAAAAAAAAAAAAAAAAAAAAAAAAAAAAAAAAAAAAAAAAAAAAAAAAAAAAAAAAAAAAAAAAAAAAAAAAAAAAAAAAAAAAAAAAAAAAAAAAAAAAAAAAAAAAAAAAAAAAAAAAAAAAAAAAAAAAAAAAAAAAAAAAAAAAAAAAAAAAAAAAAAAAAAAAAAAAAAAAAAAAAAAAAAAAAAAAAAAAAAAAAAAAAAAAAAAAAAAAAAAAAAAAAAAAAAAAAAAAAAAAAAAAAAAAAAAAAAAAAAAAAAAAAAAAAAAAAAAAAAAAAAAAAAAAAAAAAAAAAAAAAAAAAAAAAAAAAAAAAAAAAAAAAAAAAAAAAAAAAAAAAAAAAAAAAAAAAAAAAAAAAAAAAAAAAAAAAAAAAAAAAAAAAAAAAAAAAAAAAAAAAAAAAAAAAAAAAAAAAAAAAAAAAAAAAAAAAAAAAAAAAAAAAAAAAAAAAAAAAAAAAAAAAAAAAAAAAAAAAAAAAAAAAAAAAAAAAAAAAAAAAAAAAAAAAAAAAAAAAAAAAAAAAAAAAAAAAAAAAAAAAAAAAAAAAAAAAAAAAAAAAAAAAAAAAAAAAAAAAAAAAAAAAAAAAAAAAAAAAAAAAAAAAAAAAAAAAAAAAAAAAAAAAAAAAAAAAAAAAAAAAAAAAAAAAAAAAAAAAAAAAAAAAAAAAAAAAAAAAAAAAAAAAAAAAAAAAAAAAAAAAAAAAAAAAAAAAAAAAAAAAAAAAAAAAAAAAAAAAAAAAAAAAAAAAAAAAAAAAAAAAAAAAAAAAAAAAAAAAAAAAAAAAAAAAAAAAAAAAAAAAAAAAAAAAAAAAAAAAAAAAAAAAAAAAAAAAAAAAAAAAAAAAAAAAAAAAAAAAAAAAAAAAAAAAAAAAAAAAAAAAAAAAAAAAAAAAAAAAAAAAAAAAAAAAAAAAAAAAAAAAAAAAAAAAAAAAAAAAAAAAAAAAAAAAAAAAAAAAAAAAAAAAAAAAAAAAAAAAAAAAAAAAAAAAAAAAAAAAAAAAAAAAAAAAAAAAAAAAAAAAAAAAAAAAAAAAAAAAAAAAAAAAAAAAAAAAAAAAAAAAAAAAAAAAAAAAAAAAAAAAAAAAAAAAAAAAAAAAAAAAAAAAAAAAAAAAAAAAAAAAAAAAAAAAAAAAAAAAAAAAAAAAAAAAAAAAAAAAAAAAAAAAAAAAAAAAAAAAAAAAAAAAAAAAAAAAAAAAAAAAAAAAAAAAAAAAAAAAAAAAAAAAAAAAAAAAAAAAAAAAAAAAAAAAAAAAAAAAAAAAAAAAAAAAAAAAAAAAAAAAAAAAAAAAAAAAAAAAAAAAAAAAAAAAAAAAAAAAAAAAAAAAAAAAAAAAAAAAAAAAAAAAAAAAAAAAAAAAAAAAAAAAAAAAAAAAAAAAAAAAAAAAAAAAAAAAAAAAAAAAAAAAAAAAAAAAAAAAAAAAAAAAAAAAAAAAAAAAAAAAAAAAAAAAAAAAAAAAAAAAAAAAAAAAAAAAAAAAAAAAAAAAAAAAAAAAAAAAAAAAAAAAAAAAAAAAAAAAAAAAAAAAAAAAAAAAAAAAAAAAAAAAAAAAAAAAAAAAAAAAAAAAAAAAAAAAAAAAAAAAAAAAAAAAAAAAAAAAAAAAAAAAAAAAAAAAAAAAAAAAAAAAAAAAAAAAAAAAAAAAAAAAAAAAAAAAAAAAAAAAAAAAAAAAAAAAAAAAAAAAAAAAAAAAAAAAAAAAAAAAAAAAAAAAAAAAAAAAAAAAAAAAAAAAAAAAAAAAAAAAAAAAAAAAAAAAAAAAAAAAAAAAAAAAAAAAAAAAAAAAAAAAAAAAAAAAAAAAAAAAAAAAAAAAAAAAAAAAAPZYQAGs9AYzlOp2ikaiZupfK6rbK6bNhYEj/7KQo0jOAY/+k7dXT/4MAheLM1nKp9p9NAaCRE2SbGSoJPTIrNL1C7M=</c2pa:manifest></metadata>
<defs>
<linearGradient id="hullG" x1="0" y1="0" x2="1" y2="0">
<stop offset="0" stop-color="#693d1c"></stop><stop offset=".35" stop-color="#c38853"></stop><stop offset=".72" stop-color="#a26b3c"></stop><stop offset="1" stop-color="#8e5a30"></stop></linearGradient>
<linearGradient id="hullG2" x1="0" y1="0" x2="1" y2="0">
<stop offset="0" stop-color="#8e5a30"></stop><stop offset=".4" stop-color="#c38853"></stop><stop offset="1" stop-color="#a26b3c"></stop></linearGradient>
<linearGradient id="blueG" x1="0" y1="0" x2="1" y2="0">
<stop offset="0" stop-color="#361a09"></stop><stop offset=".45" stop-color="#4e2a11"></stop><stop offset="1" stop-color="#251005"></stop></linearGradient>
<linearGradient id="wingG" x1="0" y1="0" x2="1" y2="1">
<stop offset="0" stop-color="#4e2a11"></stop><stop offset=".45" stop-color="#c38853"></stop><stop offset="1" stop-color="#8e5a30"></stop></linearGradient>
<linearGradient id="wingG2" x1="0" y1="1" x2="1" y2="0">
<stop offset="0" stop-color="#361a09"></stop><stop offset=".55" stop-color="#a26b3c"></stop><stop offset="1" stop-color="#c38853"></stop></linearGradient>
<linearGradient id="nacG" x1="0" y1="0" x2="1" y2="0">
<stop offset="0" stop-color="#693d1c"></stop><stop offset=".4" stop-color="#c38853"></stop><stop offset="1" stop-color="#8e5a30"></stop></linearGradient>
<linearGradient id="tubeG" x1="0" y1="0" x2="1" y2="0">
<stop offset="0" stop-color="#693d1c"></stop><stop offset=".38" stop-color="#c38853"></stop><stop offset="1" stop-color="#8e5a30"></stop></linearGradient>
<radialGradient id="embRing">
<stop offset=".62" stop-color="#f0dcbc" stop-opacity="0"></stop><stop offset=".8" stop-color="#f0dcbc" stop-opacity=".55"></stop><stop offset="1" stop-color="#f0dcbc" stop-opacity="0"></stop></radialGradient>
</defs>

<g id="ship">
<g id="halfL">
<path d="M624 1024 C470 1092 300 1246 168 1428 C104 1518 78 1586 92 1606 C110 1630 216 1596 340 1530&#xA;         C486 1452 664 1318 796 1198 L800 1120 Z" fill="url(#wingG)" stroke="#271105" stroke-width="9"></path>
<path d="M660 1080 C516 1148 356 1290 236 1452 C190 1516 172 1560 182 1574 C198 1592 282 1560 386 1504&#xA;         C516 1434 672 1316 786 1210 L790 1160 Z" fill="url(#wingG2)" stroke="#271105" stroke-width="5" opacity=".9"></path>
<path d="M624 1024 C470 1092 300 1246 168 1428 C104 1518 78 1586 92 1606" fill="none" stroke="#714420" stroke-width="26" opacity=".9" stroke-linecap="round"></path>
<path d="M624 1024 C470 1092 300 1246 168 1428 C104 1518 78 1586 92 1606" fill="none" stroke="#c38853" stroke-width="8" opacity=".55"></path>
<path d="M340 1530 C486 1452 664 1318 796 1198" fill="none" stroke="#271105" stroke-width="6" opacity=".7"></path>
<path d="M236 1452 C356 1290 516 1148 660 1080" fill="none" stroke="#271105" stroke-width="4" opacity=".5"></path>
<rect x="560" y="1140" width="130" height="60" rx="5" fill="#8e5a30" opacity="0.7" stroke="#271105" stroke-width="3"></rect><rect x="578" y="1156" width="94" height="5.5" rx="2" fill="#271105" opacity=".75"></rect><rect x="578" y="1166" width="94" height="5.5" rx="2" fill="#271105" opacity=".75"></rect><rect x="578" y="1176" width="94" height="5.5" rx="2" fill="#271105" opacity=".75"></rect>
<rect x="430" y="1246" width="120" height="58" rx="5" fill="#8e5a30" opacity="0.62" stroke="#271105" stroke-width="3"></rect><rect x="448" y="1262" width="84" height="5.1" rx="2" fill="#271105" opacity=".75"></rect><rect x="448" y="1271.3" width="84" height="5.1" rx="2" fill="#271105" opacity=".75"></rect><rect x="448" y="1280.7" width="84" height="5.1" rx="2" fill="#271105" opacity=".75"></rect>
<rect x="312" y="1354" width="108" height="54" rx="5" fill="#8e5a30" opacity="0.55" stroke="#271105" stroke-width="3"></rect>
<rect x="206" y="1454" width="90" height="46" rx="5" fill="#361a09" opacity="0.5" stroke="#271105" stroke-width="3"></rect>
<rect x="636" y="1236" width="96" height="50" rx="5" fill="#361a09" opacity="0.5" stroke="#271105" stroke-width="3"></rect>
<rect x="500" y="1338" width="96" height="48" rx="5" fill="#361a09" opacity="0.45" stroke="#271105" stroke-width="3"></rect>
<circle cx="520" cy="1216" r="5" fill="#693d1c" stroke="#271105" stroke-width="2"></circle><circle cx="400" cy="1322" r="5" fill="#693d1c" stroke="#271105" stroke-width="2"></circle><circle cx="290" cy="1424" r="5" fill="#693d1c" stroke="#271105" stroke-width="2"></circle><circle cx="600" cy="1206" r="5" fill="#693d1c" stroke="#271105" stroke-width="2"></circle><circle cx="470" cy="1400" r="5" fill="#693d1c" stroke="#271105" stroke-width="2"></circle><circle cx="352" cy="1490" r="5" fill="#693d1c" stroke="#271105" stroke-width="2"></circle>
<g>
<path d="M352 1106 L360 1074 L400 1058 L484 1058 L522 1074 L530 1106 L530 1300 L512 1350 L360 1350 L352 1300 Z" fill="url(#nacG)" stroke="#271105" stroke-width="8"></path>
<rect x="378" y="1092" width="124" height="70" rx="8" fill="#4e2a11" opacity=".85" stroke="#271105" stroke-width="4"></rect>
<ellipse cx="440" cy="1352" rx="72" ry="26" fill="#693d1c" stroke="#271105" stroke-width="6"></ellipse>
<rect x="386" y="1180" width="108" height="118" rx="6" fill="#8e5a30" opacity=".55"></rect>
<rect x="398" y="1198" width="84" height="8.8" rx="2" fill="#271105" opacity=".75"></rect><rect x="398" y="1214" width="84" height="8.8" rx="2" fill="#271105" opacity=".75"></rect><rect x="398" y="1230" width="84" height="8.8" rx="2" fill="#271105" opacity=".75"></rect><rect x="398" y="1246" width="84" height="8.8" rx="2" fill="#271105" opacity=".75"></rect><rect x="398" y="1262" width="84" height="8.8" rx="2" fill="#271105" opacity=".75"></rect>
<rect x="382" y="736" width="42" height="360" rx="14" fill="url(#tubeG)" stroke="#271105" stroke-width="7"></rect>
<rect x="440" y="736" width="42" height="360" rx="14" fill="url(#tubeG)" stroke="#271105" stroke-width="7"></rect>
<rect x="386" y="698" width="34" height="62" rx="10" fill="#693d1c" stroke="#271105" stroke-width="6"></rect>
<rect x="444" y="698" width="34" height="62" rx="10" fill="#693d1c" stroke="#271105" stroke-width="6"></rect>
<rect x="376" y="880" width="54" height="32" rx="5" fill="#693d1c" stroke="#271105" stroke-width="5"></rect><rect x="434" y="880" width="54" height="32" rx="5" fill="#693d1c" stroke="#271105" stroke-width="5"></rect><rect x="376" y="1004" width="54" height="32" rx="5" fill="#693d1c" stroke="#271105" stroke-width="5"></rect><rect x="434" y="1004" width="54" height="32" rx="5" fill="#693d1c" stroke="#271105" stroke-width="5"></rect>
</g>
<path d="M1024 950 L530 958 L520 1046 L530 1156 L562 1276 L612 1386 L688 1488 L790 1568 L892 1628 L1024 1668 Z" fill="url(#hullG)" stroke="#271105" stroke-width="9"></path>
<path d="M1024 1000 L590 1006 L578 1090 L588 1188 L618 1292 L664 1388 L732 1478 L820 1548 L1024 1608 Z" fill="url(#hullG2)" stroke="#271105" stroke-width="5" opacity=".92"></path>
<path d="M530 958 L520 1046 L530 1156" fill="none" stroke="#c38853" stroke-width="8" opacity=".6"></path>
<rect x="600" y="1040" width="150" height="86" rx="5" fill="#8e5a30" opacity="0.6" stroke="#271105" stroke-width="3"></rect><rect x="620" y="1060" width="110" height="6.9" rx="2" fill="#271105" opacity=".75"></rect><rect x="620" y="1072.5" width="110" height="6.9" rx="2" fill="#271105" opacity=".75"></rect><rect x="620" y="1085" width="110" height="6.9" rx="2" fill="#271105" opacity=".75"></rect><rect x="620" y="1097.5" width="110" height="6.9" rx="2" fill="#271105" opacity=".75"></rect>
<rect x="608" y="1180" width="140" height="120" rx="5" fill="#361a09" opacity="0.7" stroke="#271105" stroke-width="3"></rect><rect x="628" y="1202" width="100" height="8.6" rx="2" fill="#271105" opacity=".75"></rect><rect x="628" y="1217.6" width="100" height="8.6" rx="2" fill="#271105" opacity=".75"></rect><rect x="628" y="1233.2" width="100" height="8.6" rx="2" fill="#271105" opacity=".75"></rect><rect x="628" y="1248.8" width="100" height="8.6" rx="2" fill="#271105" opacity=".75"></rect><rect x="628" y="1264.4" width="100" height="8.6" rx="2" fill="#271105" opacity=".75"></rect>
<rect x="690" y="1330" width="130" height="120" rx="6" fill="#8e5a30" opacity="0.5" stroke="#271105" stroke-width="3"></rect>
<rect x="786" y="1430" width="120" height="110" rx="6" fill="#361a09" opacity="0.55" stroke="#271105" stroke-width="3"></rect>
<rect x="830" y="1060" width="120" height="64" rx="5" fill="#8e5a30" opacity="0.55" stroke="#271105" stroke-width="3"></rect><rect x="848" y="1076" width="84" height="6.2" rx="2" fill="#271105" opacity=".75"></rect><rect x="848" y="1087.3" width="84" height="6.2" rx="2" fill="#271105" opacity=".75"></rect><rect x="848" y="1098.7" width="84" height="6.2" rx="2" fill="#271105" opacity=".75"></rect>
<rect x="624" y="1002" width="58" height="16" rx="3" fill="#f0dcbc" opacity=".9"></rect><rect x="706" y="1002" width="44" height="16" rx="3" fill="#f0dcbc" opacity=".9"></rect>
<circle cx="560" cy="1080" r="5" fill="#693d1c" stroke="#271105" stroke-width="2"></circle><circle cx="572" cy="1210" r="5" fill="#693d1c" stroke="#271105" stroke-width="2"></circle><circle cx="634" cy="1330" r="5" fill="#693d1c" stroke="#271105" stroke-width="2"></circle><circle cx="706" cy="1440" r="5" fill="#693d1c" stroke="#271105" stroke-width="2"></circle><circle cx="812" cy="1540" r="5" fill="#693d1c" stroke="#271105" stroke-width="2"></circle>
<path d="M1024 1668 L892 1628 L790 1568" fill="none" stroke="#714420" stroke-width="7" opacity=".75"></path>
<path d="M846 1650 L1024 1600 L1024 1790 L906 1740 Z" fill="url(#hullG2)" stroke="#271105" stroke-width="7"></path>
<rect x="900" y="1656" width="92" height="70" rx="5" fill="#8e5a30" opacity="0.5" stroke="#271105" stroke-width="3"></rect>
<path d="M1024 34 L988 58 L950 124 L912 210 L884 302 L864 394 L854 444 L854 470 L1024 470 Z" fill="url(#hullG)" stroke="#271105" stroke-width="9"></path>
<path d="M1024 108 L982 142 L950 210 L924 296 L906 384 L894 440 L1024 440 Z" fill="url(#blueG)" stroke="#271105" stroke-width="6"></path>
<path d="M1024 176 L998 210 L976 278 L960 352 L950 414 L948 432 L1024 432 Z" fill="url(#hullG2)" stroke="#271105" stroke-width="5"></path>
<path d="M1024 462 L852 462 L776 480 L726 528 L698 608 L682 690 L680 716 L1024 716 Z" fill="url(#hullG)" stroke="#271105" stroke-width="9"></path>
<path d="M1024 502 L868 502 L806 520 L766 562 L744 630 L732 690 L1024 690 Z" fill="url(#blueG)" stroke="#271105" stroke-width="6" opacity=".94"></path>
<path d="M1024 706 L680 706 L614 724 L570 766 L544 838 L532 918 L530 964 L1024 964 Z" fill="url(#hullG)" stroke="#271105" stroke-width="9"></path>
<path d="M1024 746 L700 746 L648 762 L612 796 L590 856 L580 938 L1024 938 Z" fill="url(#blueG)" stroke="#271105" stroke-width="6" opacity=".9"></path>
<path d="M852 462 L776 480 L726 528" fill="none" stroke="#c38853" stroke-width="7" opacity=".6"></path>
<path d="M680 706 L614 724 L570 766" fill="none" stroke="#c38853" stroke-width="7" opacity=".6"></path>
<path d="M898 152 L872 236 L858 334" fill="none" stroke="#c38853" stroke-width="6" opacity=".55"></path>
<rect x="770" y="246" width="80" height="180" rx="4" fill="#8e5a30" opacity="0.6" stroke="#271105" stroke-width="3"></rect><rect x="786" y="266" width="50" height="11" rx="2" fill="#271105" opacity=".75"></rect><rect x="786" y="286" width="50" height="11" rx="2" fill="#271105" opacity=".75"></rect><rect x="786" y="306" width="50" height="11" rx="2" fill="#271105" opacity=".75"></rect><rect x="786" y="326" width="50" height="11" rx="2" fill="#271105" opacity=".75"></rect><rect x="786" y="346" width="50" height="11" rx="2" fill="#271105" opacity=".75"></rect><rect x="786" y="366" width="50" height="11" rx="2" fill="#271105" opacity=".75"></rect><rect x="786" y="386" width="50" height="11" rx="2" fill="#271105" opacity=".75"></rect>
<rect x="756" y="520" width="120" height="150" rx="5" fill="#8e5a30" opacity="0.65" stroke="#271105" stroke-width="3"></rect><rect x="774" y="542" width="86" height="9.7" rx="2" fill="#271105" opacity=".75"></rect><rect x="774" y="559.7" width="86" height="9.7" rx="2" fill="#271105" opacity=".75"></rect><rect x="774" y="577.3" width="86" height="9.7" rx="2" fill="#271105" opacity=".75"></rect><rect x="774" y="595" width="86" height="9.7" rx="2" fill="#271105" opacity=".75"></rect><rect x="774" y="612.7" width="86" height="9.7" rx="2" fill="#271105" opacity=".75"></rect><rect x="774" y="630.3" width="86" height="9.7" rx="2" fill="#271105" opacity=".75"></rect>
<rect x="608" y="772" width="120" height="150" rx="5" fill="#8e5a30" opacity="0.6" stroke="#271105" stroke-width="3"></rect><rect x="626" y="794" width="86" height="9.7" rx="2" fill="#271105" opacity=".75"></rect><rect x="626" y="811.7" width="86" height="9.7" rx="2" fill="#271105" opacity=".75"></rect><rect x="626" y="829.3" width="86" height="9.7" rx="2" fill="#271105" opacity=".75"></rect><rect x="626" y="847" width="86" height="9.7" rx="2" fill="#271105" opacity=".75"></rect><rect x="626" y="864.7" width="86" height="9.7" rx="2" fill="#271105" opacity=".75"></rect><rect x="626" y="882.3" width="86" height="9.7" rx="2" fill="#271105" opacity=".75"></rect>
<rect x="896" y="246" width="84" height="214" rx="5" fill="#361a09" opacity="0.5" stroke="#271105" stroke-width="3"></rect><rect x="910" y="272" width="58" height="11.3" rx="2" fill="#271105" opacity=".75"></rect><rect x="910" y="292.5" width="58" height="11.3" rx="2" fill="#271105" opacity=".75"></rect><rect x="910" y="313" width="58" height="11.3" rx="2" fill="#271105" opacity=".75"></rect><rect x="910" y="333.5" width="58" height="11.3" rx="2" fill="#271105" opacity=".75"></rect><rect x="910" y="354" width="58" height="11.3" rx="2" fill="#271105" opacity=".75"></rect><rect x="910" y="374.5" width="58" height="11.3" rx="2" fill="#271105" opacity=".75"></rect><rect x="910" y="395" width="58" height="11.3" rx="2" fill="#271105" opacity=".75"></rect><rect x="910" y="415.5" width="58" height="11.3" rx="2" fill="#271105" opacity=".75"></rect>
<rect x="886" y="520" width="96" height="180" rx="5" fill="#361a09" opacity="0.5" stroke="#271105" stroke-width="3"></rect><rect x="902" y="548" width="66" height="10.1" rx="2" fill="#271105" opacity=".75"></rect><rect x="902" y="566.3" width="66" height="10.1" rx="2" fill="#271105" opacity=".75"></rect><rect x="902" y="584.6" width="66" height="10.1" rx="2" fill="#271105" opacity=".75"></rect><rect x="902" y="602.9" width="66" height="10.1" rx="2" fill="#271105" opacity=".75"></rect><rect x="902" y="621.1" width="66" height="10.1" rx="2" fill="#271105" opacity=".75"></rect><rect x="902" y="639.4" width="66" height="10.1" rx="2" fill="#271105" opacity=".75"></rect><rect x="902" y="657.7" width="66" height="10.1" rx="2" fill="#271105" opacity=".75"></rect>
<rect x="880" y="760" width="100" height="180" rx="5" fill="#361a09" opacity="0.5" stroke="#271105" stroke-width="3"></rect><rect x="896" y="788" width="68" height="10.1" rx="2" fill="#271105" opacity=".75"></rect><rect x="896" y="806.3" width="68" height="10.1" rx="2" fill="#271105" opacity=".75"></rect><rect x="896" y="824.6" width="68" height="10.1" rx="2" fill="#271105" opacity=".75"></rect><rect x="896" y="842.9" width="68" height="10.1" rx="2" fill="#271105" opacity=".75"></rect><rect x="896" y="861.1" width="68" height="10.1" rx="2" fill="#271105" opacity=".75"></rect><rect x="896" y="879.4" width="68" height="10.1" rx="2" fill="#271105" opacity=".75"></rect><rect x="896" y="897.7" width="68" height="10.1" rx="2" fill="#271105" opacity=".75"></rect>
<rect x="700" y="900" width="74" height="18" rx="3" fill="#f0dcbc" opacity=".9"></rect><rect x="742" y="660" width="60" height="16" rx="3" fill="#f0dcbc" opacity=".9"></rect><rect x="806" y="404" width="46" height="14" rx="3" fill="#f0dcbc" opacity=".9"></rect>
<circle cx="880" cy="300" r="5" fill="#693d1c" stroke="#271105" stroke-width="2"></circle><circle cx="866" cy="392" r="5" fill="#693d1c" stroke="#271105" stroke-width="2"></circle><circle cx="730" cy="560" r="5" fill="#693d1c" stroke="#271105" stroke-width="2"></circle><circle cx="712" cy="650" r="5" fill="#693d1c" stroke="#271105" stroke-width="2"></circle><circle cx="600" cy="812" r="5" fill="#693d1c" stroke="#271105" stroke-width="2"></circle><circle cx="584" cy="900" r="5" fill="#693d1c" stroke="#271105" stroke-width="2"></circle></g>
<use href="#halfL" transform="translate(2048 0) scale(-1 1)"></use>
<g id="spine">

<path d="M1024 26 L1060 58 L1082 128 L1096 208 L1104 286 L944 286 L952 208 L966 128 L988 58 Z" fill="url(#hullG2)" stroke="#271105" stroke-width="7"></path>
<path d="M1024 62 L1046 92 L1060 150 L1068 214 L980 214 L988 150 L1002 92 Z" fill="url(#blueG)" stroke="#271105" stroke-width="5"></path>
<path d="M1024 96 L1036 132 L1042 190 L1006 190 L1012 132 Z" fill="#c38853" opacity=".8"></path>
<path d="M1024 690 L1150 726 L1180 890 L1120 940 L928 940 L868 890 L898 726 Z" fill="url(#hullG2)" stroke="#271105" stroke-width="7"></path>
<rect x="966" y="730" width="116" height="150" rx="6" fill="#8e5a30" opacity="0.55" stroke="#271105" stroke-width="3"></rect><rect x="984" y="754" width="80" height="9.5" rx="2" fill="#271105" opacity=".75"></rect><rect x="984" y="771.3" width="80" height="9.5" rx="2" fill="#271105" opacity=".75"></rect><rect x="984" y="788.7" width="80" height="9.5" rx="2" fill="#271105" opacity=".75"></rect><rect x="984" y="806" width="80" height="9.5" rx="2" fill="#271105" opacity=".75"></rect><rect x="984" y="823.3" width="80" height="9.5" rx="2" fill="#271105" opacity=".75"></rect><rect x="984" y="840.7" width="80" height="9.5" rx="2" fill="#271105" opacity=".75"></rect>

<path d="M1024 300 L978 306 L950 336 L938 380 L934 432 L936 470 L1112 470 L1114 432 L1110 380 L1098 336 L1070 306 Z" fill="url(#hullG)" stroke="#271105" stroke-width="7"></path>
<path d="M948 386 L1100 386 L1092 434 L956 434 Z" fill="#271105"></path>
<rect x="962" y="396" width="40" height="24" rx="3" fill="#f0dcbc" opacity=".95"></rect>
<rect x="1046" y="396" width="40" height="24" rx="3" fill="#f0dcbc" opacity=".95"></rect>
<rect x="1010" y="400" width="28" height="16" rx="2" fill="#f0dcbc" opacity=".7"></rect>
<path d="M960 338 L1088 338 L1080 372 L968 372 Z" fill="#8e5a30" stroke="#271105" stroke-width="4"></path>

<path d="M1024 524 L988 530 L966 556 L956 594 L953 634 L955 656 L1093 656 L1095 634 L1092 594 L1082 556 L1060 530 Z" fill="url(#hullG)" stroke="#271105" stroke-width="6"></path>
<path d="M962 588 L1086 588 L1080 624 L968 624 Z" fill="#271105"></path>
<rect x="974" y="596" width="30" height="20" rx="3" fill="#f0dcbc" opacity=".9"></rect>
<rect x="1044" y="596" width="30" height="20" rx="3" fill="#f0dcbc" opacity=".9"></rect>
<rect x="990" y="558" width="68" height="22" rx="4" fill="#c38853" stroke="#271105" stroke-width="4"></rect>

<path d="M940 1210 L1108 1210 L1126 1560 L1090 1640 L1024 1672 L958 1640 L922 1560 Z" fill="url(#hullG)" stroke="#271105" stroke-width="8"></path>
<g transform="translate(1024 1320) scale(1)">
<path d="M-92 -22 L-78 -38 L78 -38 L92 -22 L92 96 L78 116 L-78 116 L-92 96 Z" fill="url(#nacG)" stroke="#271105" stroke-width="8"></path>
<rect x="-62" y="-52" width="30" height="52" rx="6" fill="#693d1c" stroke="#271105" stroke-width="5"></rect>
<ellipse cx="-47" cy="-52" rx="15" ry="8" fill="#271105"></ellipse><rect x="-22" y="-52" width="30" height="52" rx="6" fill="#693d1c" stroke="#271105" stroke-width="5"></rect>
<ellipse cx="-7" cy="-52" rx="15" ry="8" fill="#271105"></ellipse><rect x="18" y="-52" width="30" height="52" rx="6" fill="#693d1c" stroke="#271105" stroke-width="5"></rect>
<ellipse cx="33" cy="-52" rx="15" ry="8" fill="#271105"></ellipse><rect x="58" y="-52" width="30" height="52" rx="6" fill="#693d1c" stroke="#271105" stroke-width="5"></rect>
<ellipse cx="73" cy="-52" rx="15" ry="8" fill="#271105"></ellipse>
<rect x="-70" y="16" width="140" height="76" rx="6" fill="#8e5a30" opacity=".6"></rect>
<rect x="-52" y="32" width="104" height="8.1" rx="2" fill="#271105" opacity=".75"></rect><rect x="-52" y="46.7" width="104" height="8.1" rx="2" fill="#271105" opacity=".75"></rect><rect x="-52" y="61.3" width="104" height="8.1" rx="2" fill="#271105" opacity=".75"></rect>
</g><g transform="translate(1024 1520) scale(0.92)">
<path d="M-92 -22 L-78 -38 L78 -38 L92 -22 L92 96 L78 116 L-78 116 L-92 96 Z" fill="url(#nacG)" stroke="#271105" stroke-width="8"></path>
<rect x="-62" y="-52" width="30" height="52" rx="6" fill="#693d1c" stroke="#271105" stroke-width="5"></rect>
<ellipse cx="-47" cy="-52" rx="15" ry="8" fill="#271105"></ellipse><rect x="-22" y="-52" width="30" height="52" rx="6" fill="#693d1c" stroke="#271105" stroke-width="5"></rect>
<ellipse cx="-7" cy="-52" rx="15" ry="8" fill="#271105"></ellipse><rect x="18" y="-52" width="30" height="52" rx="6" fill="#693d1c" stroke="#271105" stroke-width="5"></rect>
<ellipse cx="33" cy="-52" rx="15" ry="8" fill="#271105"></ellipse><rect x="58" y="-52" width="30" height="52" rx="6" fill="#693d1c" stroke="#271105" stroke-width="5"></rect>
<ellipse cx="73" cy="-52" rx="15" ry="8" fill="#271105"></ellipse>
<rect x="-70" y="16" width="140" height="76" rx="6" fill="#8e5a30" opacity=".6"></rect>
<rect x="-52" y="32" width="104" height="8.1" rx="2" fill="#271105" opacity=".75"></rect><rect x="-52" y="46.7" width="104" height="8.1" rx="2" fill="#271105" opacity=".75"></rect><rect x="-52" y="61.3" width="104" height="8.1" rx="2" fill="#271105" opacity=".75"></rect>
</g><g transform="translate(1024 1706) scale(0.84)">
<path d="M-92 -22 L-78 -38 L78 -38 L92 -22 L92 96 L78 116 L-78 116 L-92 96 Z" fill="url(#nacG)" stroke="#271105" stroke-width="8"></path>
<rect x="-62" y="-52" width="30" height="52" rx="6" fill="#693d1c" stroke="#271105" stroke-width="5"></rect>
<ellipse cx="-47" cy="-52" rx="15" ry="8" fill="#271105"></ellipse><rect x="-22" y="-52" width="30" height="52" rx="6" fill="#1a0e04" stroke="#271105" stroke-width="5"></rect>
<ellipse cx="-7" cy="-52" rx="15" ry="8" fill="#1a0e04"></ellipse><rect x="18" y="-52" width="30" height="52" rx="6" fill="#1a0e04" stroke="#271105" stroke-width="5"></rect>
<ellipse cx="33" cy="-52" rx="15" ry="8" fill="#1a0e04"></ellipse><rect x="58" y="-52" width="30" height="52" rx="6" fill="#1a0e04" stroke="#271105" stroke-width="5"></rect>
<ellipse cx="73" cy="-52" rx="15" ry="8" fill="#1a0e04"></ellipse>
<rect x="-70" y="16" width="140" height="76" rx="6" fill="#1a0e04" opacity=".6"></rect>
<rect x="-52" y="32" width="104" height="8.1" rx="2" fill="#1a0e04" opacity=".75"></rect><rect x="-52" y="46.7" width="104" height="8.1" rx="2" fill="#1a0e04" opacity=".75"></rect><rect x="-52" y="61.3" width="104" height="8.1" rx="2" fill="#1a0e04" opacity=".75"></rect>
</g>
<path d="M980 1770 L1068 1770 L1052 1866 L1024 1892 L996 1866 Z" fill="url(#hullG2)" stroke="#271105" stroke-width="7"></path>

<circle cx="1024" cy="1010" r="212" fill="#1a0e04" stroke="#271105" stroke-width="9"></circle>
<circle cx="1024" cy="1010" r="198" fill="none" stroke="#f0dcbc" stroke-width="16" opacity=".95"></circle>
<circle cx="1024" cy="1010" r="176" fill="#1a0e04"></circle>
<text x="1024" y="1102" text-anchor="middle" font-family="Arial Black, Arial, Helvetica, sans-serif" font-weight="900" font-size="270" fill="#ffffff">K</text>
<text x="1024" y="1102" text-anchor="middle" font-family="Arial Black, Arial, Helvetica, sans-serif" font-weight="900" font-size="270" fill="none" stroke="#4a2a0c" stroke-width="6" opacity=".85">K</text>
</g>
<path d="M14 1574 L27 1699 L105 1730 L161 1632 Z" fill="#6b451f" stroke="#150c03" stroke-width="7"></path><path d="M101 1555 L18 1521 L60 1507 L123 1538 Z" fill="#9a6c33" stroke="#150c03" stroke-width="5"></path><path d="M119 1511 L35 1478 L77 1463 L140 1494 Z" fill="#9a6c33" stroke="#150c03" stroke-width="5"></path><path d="M63 1593 L55 1710" stroke="#f0dcbc" stroke-width="6" opacity=".85"></path></g>
<g id="glow">
<circle cx="1024" cy="1010" r="308" fill="url(#embRing)" opacity=".55"></circle>
</g>
</svg>