<svg xmlns="http://www.w3.org/2000/svg" viewBox="0 0 2048 2048" width="2048" height="2048" xmlns:c2pa="http://c2pa.org/manifest"><metadata><c2pa:manifest>AAAWgmp1bWIAAAAeanVtZGMycGEAEQAQgAAAqgA4m3EDYzJwYQAAABZcanVtYgAAAEdqdW1kYzJtYQARABCAAACqADibcQN1cm46YzJwYTpkOWIwYzkzYy02OTYxLTQxMTQtYmYwNi1mMWUwZGNiYTc5NjcAAAADl2p1bWIAAAApanVtZGMyYXMAEQAQgAAAqgA4m3EDYzJwYS5hc3NlcnRpb25zAAAAALxqdW1iAAAARGp1bWRjYm9yABEAEIAAAKoAOJtxE2MycGEuaW5ncmVkaWVudC52MwAAAAAYYzJzaGZqZTVM4TlDWEXdteyXdYEAAABwY2JvcqNpZGM6Zm9ybWF0bWltYWdlL3N2Zyt4bWxqaW5zdGFuY2VJRHgseG1wOmlpZDoxMGEyNGQyMy05NDg2LTRiNzYtOWVkZC1iYWNjNDgwNmExNmNscmVsYXRpb25zaGlwaHBhcmVudE9mAAAB4mp1bWIAAABBanVtZGNib3IAEQAQgAAAqgA4m3ETYzJwYS5hY3Rpb25zLnYyAAAAABhjMnNorPSTcrVuhUywMpDnpGfqrgAAAZljYm9yomdhY3Rpb25zgqJmYWN0aW9ua2MycGEub3BlbmVkanBhcmFtZXRlcnOha2luZ3JlZGllbnRzgaJjdXJseC1zZWxmI2p1bWJmPWMycGEuYXNzZXJ0aW9ucy9jMnBhLmluZ3JlZGllbnQudjNkaGFzaFggQyBrp9/AXifNJzgdg66v5j46++xdG6mduaw1mu7eUwekZmFjdGlvbngdY29tLmFudGhyb3BpYy5jbGF1ZGUucHJvdmlkZWRqcGFyYW1ldGVyc6F4H2NvbS5hbnRocm9waWMub3JpZ2luLWNvbmZpZGVuY2VndW5rbm93bmtkZXNjcmlwdGlvbnhmQ2xhdWRlIHByb3ZpZGVkIHRoaXMgZmlsZSBhdCB0aGUgcmVxdWVzdCBvZiBhIHVzZXIgYW5kIG1heSBoYXZlIGNyZWF0ZWQgb3IgbW9kaWZpZWQgdGhlIGZpbGUgY29udGVudHMubXNvZnR3YXJlQWdlbnShZG5hbWVmQ2xhdWRlcmFsbEFjdGlvbnNJbmNsdWRlZPUAAADIanVtYgAAAEBqdW1kY2JvcgARABCAAACqADibcRNjMnBhLmhhc2guZGF0YQAAAAAYYzJzaK03lw8QQEKPJmWmiXJjAaMAAACAY2JvcqVjYWxnZnNoYTI1NmNwYWRNAAAAAAAAAAAAAAAAAGRoYXNoWCA8fZk8CJQfBN2QK56mHYerHpP41DOHyGnvH+Q+AzoBOGRuYW1lbmp1bWJmIG1hbmlmZXN0amV4Y2x1c2lvbnOBomVzdGFydBiaZmxlbmd0aBkeBAAAAj5qdW1iAAAAJ2p1bWRjMmNsABEAEIAAAKoAOJtxA2MycGEuY2xhaW0udjIAAAACD2Nib3KlY2FsZ2ZzaGEyNTZpc2lnbmF0dXJleE1zZWxmI2p1bWJmPS9jMnBhL3VybjpjMnBhOmQ5YjBjOTNjLTY5NjEtNDExNC1iZjA2LWYxZTBkY2JhNzk2Ny9jMnBhLnNpZ25hdHVyZWppbnN0YW5jZUlEeCx4bXA6aWlkOmMxMzdlMWE4LWM0ZDgtNGRiMy1hMDAzLThhNmRhNzliMDE0N3JjcmVhdGVkX2Fzc2VydGlvbnODomN1cmx4LXNlbGYjanVtYmY9YzJwYS5hc3NlcnRpb25zL2MycGEuaW5ncmVkaWVudC52M2RoYXNoWCBDIGun38BeJ80nOB2Drq/mPjr77F0bqZ25rDWa7t5TB6JjdXJseCpzZWxmI2p1bWJmPWMycGEuYXNzZXJ0aW9ucy9jMnBhLmFjdGlvbnMudjJkaGFzaFggBJOv7nAjiNLfSjjjvcDaVyrP4NV6kQ5qxxk/KxwxK/CiY3VybHgpc2VsZiNqdW1iZj1jMnBhLmFzc2VydGlvbnMvYzJwYS5oYXNoLmRhdGFkaGFzaFgg+VxNjuukUKt2L5i2QXUX1k9BRcMGjbwDlw9jSYeff4J0Y2xhaW1fZ2VuZXJhdG9yX2luZm+jZG5hbWVvQW50aHJvcGljIEZpbGVzZ3ZlcnNpb25lMS4wLjBrc3BlY1ZlcnNpb25lMi40LjAAABA4anVtYgAAAChqdW1kYzJjcwARABCAAACqADibcQNjMnBhLnNpZ25hdHVyZQAAABAIY2JvctKEWQISogEmGCFZAgowggIGMIIBjaADAgECAhRA5aAK7sI50L64g/oGQgU9Z1UTADAKBggqhkjOPQQDAzBJMRcwFQYDVQQKEw5BbnRocm9waWMsIFBCQzEuMCwGA1UEAxMlQW50aHJvcGljIENvbnRlbnQgQ3JlZGVudGlhbHMgUm9vdCBDQTAeFw0yNjA4MDcxODQzNTZaFw0yODA4MDYxOTQzNTZaMEQxFzAVBgNVBAoTDkFudGhyb3BpYywgUEJDMSkwJwYDVQQDEyBBbnRocm9waWMgQ2xhdWRlIENvbnRlbnQgU2lnbmluZzBZMBMGByqGSM49AgEGCCqGSM49AwEHA0IABJh6CmvLUBgFFNU0vUKlOVtE6djd17L5SuwX0LemFisBM3dkd/3cyjxFA3Qo5S46fX0/ihY0VZ7mfb9KF703t5OjWDBWMA4GA1UdDwEB/wQEAwIHgDAVBgNVHSUEDjAMBgorBgEEAYPoXgIBMAwGA1UdEwEB/wQCMAAwHwYDVR0jBBgwFoAUzlHiBIFOZFsj+OPEz5o+nMHXXMIwCgYIKoZIzj0EAwMDZwAwZAIwMXMdFJ4BetLLVY7ORuE9noqbbAZOZn/aArXyTwFAZfKrPzxF2vPoJNf1+UCdg1XGAjBwX1zd9WGqYkqmL5SFqw1QySjr1zJfpJM9+1rdDwSPLMOPOjKuiXjoU/pUUeG9RwmhY3BhZFkNngAAAAAAAAAAAAAAAAAAAAAAAAAAAAAAAAAAAAAAAAAAAAAAAAAAAAAAAAAAAAAAAAAAAAAAAAAAAAAAAAAAAAAAAAAAAAAAAAAAAAAAAAAAAAAAAAAAAAAAAAAAAAAAAAAAAAAAAAAAAAAAAAAAAAAAAAAAAAAAAAAAAAAAAAAAAAAAAAAAAAAAAAAAAAAAAAAAAAAAAAAAAAAAAAAAAAAAAAAAAAAAAAAAAAAAAAAAAAAAAAAAAAAAAAAAAAAAAAAAAAAAAAAAAAAAAAAAAAAAAAAAAAAAAAAAAAAAAAAAAAAAAAAAAAAAAAAAAAAAAAAAAAAAAAAAAAAAAAAAAAAAAAAAAAAAAAAAAAAAAAAAAAAAAAAAAAAAAAAAAAAAAAAAAAAAAAAAAAAAAAAAAAAAAAAAAAAAAAAAAAAAAAAAAAAAAAAAAAAAAAAAAAAAAAAAAAAAAAAAAAAAAAAAAAAAAAAAAAAAAAAAAAAAAAAAAAAAAAAAAAAAAAAAAAAAAAAAAAAAAAAAAAAAAAAAAAAAAAAAAAAAAAAAAAAAAAAAAAAAAAAAAAAAAAAAAAAAAAAAAAAAAAAAAAAAAAAAAAAAAAAAAAAAAAAAAAAAAAAAAAAAAAAAAAAAAAAAAAAAAAAAAAAAAAAAAAAAAAAAAAAAAAAAAAAAAAAAAAAAAAAAAAAAAAAAAAAAAAAAAAAAAAAAAAAAAAAAAAAAAAAAAAAAAAAAAAAAAAAAAAAAAAAAAAAAAAAAAAAAAAAAAAAAAAAAAAAAAAAAAAAAAAAAAAAAAAAAAAAAAAAAAAAAAAAAAAAAAAAAAAAAAAAAAAAAAAAAAAAAAAAAAAAAAAAAAAAAAAAAAAAAAAAAAAAAAAAAAAAAAAAAAAAAAAAAAAAAAAAAAAAAAAAAAAAAAAAAAAAAAAAAAAAAAAAAAAAAAAAAAAAAAAAAAAAAAAAAAAAAAAAAAAAAAAAAAAAAAAAAAAAAAAAAAAAAAAAAAAAAAAAAAAAAAAAAAAAAAAAAAAAAAAAAAAAAAAAAAAAAAAAAAAAAAAAAAAAAAAAAAAAAAAAAAAAAAAAAAAAAAAAAAAAAAAAAAAAAAAAAAAAAAAAAAAAAAAAAAAAAAAAAAAAAAAAAAAAAAAAAAAAAAAAAAAAAAAAAAAAAAAAAAAAAAAAAAAAAAAAAAAAAAAAAAAAAAAAAAAAAAAAAAAAAAAAAAAAAAAAAAAAAAAAAAAAAAAAAAAAAAAAAAAAAAAAAAAAAAAAAAAAAAAAAAAAAAAAAAAAAAAAAAAAAAAAAAAAAAAAAAAAAAAAAAAAAAAAAAAAAAAAAAAAAAAAAAAAAAAAAAAAAAAAAAAAAAAAAAAAAAAAAAAAAAAAAAAAAAAAAAAAAAAAAAAAAAAAAAAAAAAAAAAAAAAAAAAAAAAAAAAAAAAAAAAAAAAAAAAAAAAAAAAAAAAAAAAAAAAAAAAAAAAAAAAAAAAAAAAAAAAAAAAAAAAAAAAAAAAAAAAAAAAAAAAAAAAAAAAAAAAAAAAAAAAAAAAAAAAAAAAAAAAAAAAAAAAAAAAAAAAAAAAAAAAAAAAAAAAAAAAAAAAAAAAAAAAAAAAAAAAAAAAAAAAAAAAAAAAAAAAAAAAAAAAAAAAAAAAAAAAAAAAAAAAAAAAAAAAAAAAAAAAAAAAAAAAAAAAAAAAAAAAAAAAAAAAAAAAAAAAAAAAAAAAAAAAAAAAAAAAAAAAAAAAAAAAAAAAAAAAAAAAAAAAAAAAAAAAAAAAAAAAAAAAAAAAAAAAAAAAAAAAAAAAAAAAAAAAAAAAAAAAAAAAAAAAAAAAAAAAAAAAAAAAAAAAAAAAAAAAAAAAAAAAAAAAAAAAAAAAAAAAAAAAAAAAAAAAAAAAAAAAAAAAAAAAAAAAAAAAAAAAAAAAAAAAAAAAAAAAAAAAAAAAAAAAAAAAAAAAAAAAAAAAAAAAAAAAAAAAAAAAAAAAAAAAAAAAAAAAAAAAAAAAAAAAAAAAAAAAAAAAAAAAAAAAAAAAAAAAAAAAAAAAAAAAAAAAAAAAAAAAAAAAAAAAAAAAAAAAAAAAAAAAAAAAAAAAAAAAAAAAAAAAAAAAAAAAAAAAAAAAAAAAAAAAAAAAAAAAAAAAAAAAAAAAAAAAAAAAAAAAAAAAAAAAAAAAAAAAAAAAAAAAAAAAAAAAAAAAAAAAAAAAAAAAAAAAAAAAAAAAAAAAAAAAAAAAAAAAAAAAAAAAAAAAAAAAAAAAAAAAAAAAAAAAAAAAAAAAAAAAAAAAAAAAAAAAAAAAAAAAAAAAAAAAAAAAAAAAAAAAAAAAAAAAAAAAAAAAAAAAAAAAAAAAAAAAAAAAAAAAAAAAAAAAAAAAAAAAAAAAAAAAAAAAAAAAAAAAAAAAAAAAAAAAAAAAAAAAAAAAAAAAAAAAAAAAAAAAAAAAAAAAAAAAAAAAAAAAAAAAAAAAAAAAAAAAAAAAAAAAAAAAAAAAAAAAAAAAAAAAAAAAAAAAAAAAAAAAAAAAAAAAAAAAAAAAAAAAAAAAAAAAAAAAAAAAAAAAAAAAAAAAAAAAAAAAAAAAAAAAAAAAAAAAAAAAAAAAAAAAAAAAAAAAAAAAAAAAAAAAAAAAAAAAAAAAAAAAAAAAAAAAAAAAAAAAAAAAAAAAAAAAAAAAAAAAAAAAAAAAAAAAAAAAAAAAAAAAAAAAAAAAAAAAAAAAAAAAAAAAAAAAAAAAAAAAAAAAAAAAAAAAAAAAAAAAAAAAAAAAAAAAAAAAAAAAAAAAAAAAAAAAAAAAAAAAAAAAAAAAAAAAAAAAAAAAAAAAAAAAAAAAAAAAAAAAAAAAAAAAAAAAAAAAAAAAAAAAAAAAAAAAAAAAAAAAAAAAAAAAAAAAAAAAAAAAAAAAAAAAAAAAAAAAAAAAAAAAAAAAAAAAAAAAAAAAAAAAAAAAAAAAAAAAAAAAAAAAAAAAAAAAAAAAAAAAAAAAAAAAAAAAAAAAAAAAAAAAAAAAAAAAAAAAAAAAAAAAAAAAAAAAAAAAAAAAAAAAAAAAAAAAAAAAAAAAAAAAAAAAAAAAAAAAAAAAAAAAAAAAAAAAAAAAAAAAAAAAAAAAAAAAAAAAAAAAAAAAAAAAAAAAAAAAAAAAAAAAAAAAAAAAAAAAAAAAAAAAAAAAAAAAAAAAAAAAAAAAAAAAAAAAAAAAAAAAAAAAAAAAAAAAAAAAAAAAAAAAAAAAAAAAAAAAAAAAAAAAAAAAAAAAAAAAAAAAAAAAAAAAAAAAAAAAAAAAAAAAAAAAAAAAAAAAAAAAAAAAAAAAAAAAAAAAAAAAAAAAAAAAAAAAAAAAAAAAAAAAAAAAAAAAAAAAAAAAAAAAAAAAAAAAAAAAAAAAAAAAAAAAAAAAAAAAAAAAAAAAAAAAAAAAAAAAAAAAAAAAAAAAAAAAAAAAAAAAAAAAAAAAAAAAAAAAAAAAAAAAAAAAAAAAAAAAAAAAAAAAAAAAAAAAAAAAAAAAAAAAAAAAAAAAAAAAAAAAAAAAAAAAAAAAAAAAAAAAAAAAAAAAAAAAAAAAAAAAAAAAAAAAAAAAAAAAAAAAAAAAAAAAAAAAAAAAAAAAAAAAAAAAAAAAAAAAAAAAAAAAAAAAAAAAAAAAAAAAAAAAAAAAAAAAAAAAAAAAAAAAAAAAAAAAAAAAAAAAAAAAAAAAAAAAAAAAAAAAAAAAAAAAAAAAAAAAAAAAAAAAAAAAAAAAAAAAAAAAAAAAAAAAAAAAAAAAAAAAAAAAAAAAAAAAAAAAAAAAAAAAAAAAAAAAAAAAAAAAAAAAAAAAAAAAAAAAAAAAAAAAAAAAAAAAAAAAAAAAAAAAAAAAAAAAAAAAAAAAAAAAAAAAAAAAAAAAAAAAAAAAAAAAAAAAAAAAAAAAAAAAAAAAAAAAAAAAAAAAAAAAAAAAAAAAAAAAAAAAAAAAAAAAAAAAAAAAAAAAAAAAAAAAAAAAAAAAAAAAAAAAAAAAAAAAAAAAAAAAAAAAAAAAAAAAAAAAAAAAAAAAAAAAAAAAAAAAAAAAAAAAAAAAAAAAAAAAAAAAAAAAAAAAAAAAAAAAAAAAAAAAAAAAAAAAAAAAAAAAAAAAAAAAAAAAAAAAAAAAAAAAAAAAAAAAAAAAAAAAAAAAAAAAAAAAAAAAAAAAAAAAAAAAAAAAAAAAAAAAAAAAAAAAAAAAAAAAAAAAAAAAAAAAAAAAAAAAAAAAAAAAAAAAAAAAAAAAAAAAAAAAAAAAAAAAAAAAAAAAAAAAAAAAAAAAAAAAAAAAAAAAAAAAAAAAAAAAAAAAAAAAAAAAAAAAAAAAAAAAAAAAAAAAAAAAAAAAAAAAAAAAAAAAAAAAAAAAAAAAAAAAAAAAAAAAAAAAAAAAAAAAAAAAAAAAAAAAAAAAAAAAAAAAAAAAAAAAAAAAAAAAAAAAAAAAAAAAAAAAAAAAAAAAAAAAAAAAAAAAAAAAAAAAAAAAAAAAAAAAAAAAAAAAAAAAAAAAAAAAAAAAAAAAAAAAAAAAAAAAAAAAAAAAAAAAAAAAAAAAAAAAAAAAAAAAAAAAAAAAAAAAAAAAAAAAAAAAAAAAAAAAAAAAAAAAAAAAAAAAAAAAAAAAAAAAAAAAAAAAAAAAAAAAAAAAAAAAAAAAAAAAAAAAAAAAAAAAAAAAAAAAAAAAAAAPZYQO/0DbNRJmXpS8KD1U+pbzpMRzGYrdJvn7sR9Qsdd2pxHe+zi2MfxQnP1IFcUviGwVFS2t5fe7zzlYqdm0YMyHo=</c2pa:manifest></metadata>
<defs>
<linearGradient id="hullG" x1="0" y1="0" x2="1" y2="0">
<stop offset="0" stop-color="#761b15"></stop><stop offset=".36" stop-color="#e34235"></stop><stop offset=".74" stop-color="#ba3228"></stop><stop offset="1" stop-color="#a42a22"></stop></linearGradient>
<linearGradient id="hullG2" x1="0" y1="0" x2="1" y2="0">
<stop offset="0" stop-color="#a42a22"></stop><stop offset=".44" stop-color="#e34235"></stop><stop offset="1" stop-color="#ba3228"></stop></linearGradient>
<linearGradient id="blueG" x1="0" y1="0" x2="1" y2="0">
<stop offset="0" stop-color="#230504"></stop><stop offset=".5" stop-color="#50100d"></stop><stop offset="1" stop-color="#370908"></stop></linearGradient>
<linearGradient id="wingG" x1="1" y1="0" x2="0" y2="1">
<stop offset="0" stop-color="#e34235"></stop><stop offset=".45" stop-color="#50100d"></stop><stop offset="1" stop-color="#370908"></stop></linearGradient>
<linearGradient id="wingG2" x1="1" y1="0" x2="0" y2="1">
<stop offset="0" stop-color="#ba3228"></stop><stop offset=".5" stop-color="#370908"></stop><stop offset="1" stop-color="#230504"></stop></linearGradient>
<linearGradient id="podG" x1="0" y1="0" x2="1" y2="0">
<stop offset="0" stop-color="#761b15"></stop><stop offset=".35" stop-color="#e34235"></stop><stop offset="1" stop-color="#50100d"></stop></linearGradient>
<linearGradient id="tubeG" x1="0" y1="0" x2="1" y2="0">
<stop offset="0" stop-color="#761b15"></stop><stop offset=".38" stop-color="#e34235"></stop><stop offset="1" stop-color="#a42a22"></stop></linearGradient>
<radialGradient id="embPlate" cx="45%" cy="38%"><stop offset="0" stop-color="#ff5a4a"></stop><stop offset=".65" stop-color="#8c1218"></stop><stop offset="1" stop-color="#2a0508"></stop></radialGradient>
<radialGradient id="embRing">
<stop offset=".58" stop-color="#ffd633" stop-opacity="0"></stop><stop offset=".78" stop-color="#ffd633" stop-opacity=".55"></stop><stop offset="1" stop-color="#ffd633" stop-opacity="0"></stop></radialGradient>
</defs>

<g id="ship">
<g id="halfL">
<path d="M760 1010 L560 1080 L96 1620 L110 1706 L300 1668 L700 1420 L840 1330 Z" fill="url(#wingG)" stroke="#1e0403" stroke-width="9"></path>
<path d="M770 1080 L600 1140 L200 1610 L214 1660 L340 1630 L700 1410 L830 1340 Z" fill="url(#wingG2)" stroke="#1e0403" stroke-width="5" opacity=".92"></path>
<path d="M560 1080 L96 1620 L110 1706" fill="none" stroke="#841f19" stroke-width="20" opacity=".9" stroke-linecap="round"></path>
<path d="M560 1080 L96 1620" fill="none" stroke="#e34235" stroke-width="7" opacity=".5"></path>
<path d="M700 1420 L300 1668" fill="none" stroke="#1e0403" stroke-width="5" opacity=".6"></path>
<rect x="430" y="1330" width="150" height="52" rx="5" fill="#a42a22" opacity="0.55" stroke="#1e0403" stroke-width="3"></rect>
<rect x="300" y="1470" width="120" height="44" rx="5" fill="#a42a22" opacity="0.45" stroke="#1e0403" stroke-width="3"></rect>
<path d="M596 1300 L648 1268 L664 1372 L612 1400 Z" fill="#a42a22" opacity=".7" stroke="#1e0403" stroke-width="4"></path>
<path d="M620 1010 L700 970 L742 1150 L672 1190 Z" fill="url(#hullG2)" stroke="#1e0403" stroke-width="6"></path>
<g>
<path d="M556 1090 L672 1030 L700 1150 L680 1300 L568 1330 L546 1210 Z" fill="url(#hullG)" stroke="#1e0403" stroke-width="8"></path>
<path d="M580 1120 L656 1082 L676 1170 L660 1276 L590 1296 L574 1200 Z" fill="url(#blueG)" stroke="#1e0403" stroke-width="5"></path>
<rect x="584" y="824" width="26" height="240" rx="10" fill="url(#tubeG)" opacity="1" stroke="#1e0403" stroke-width="6"></rect>
<rect x="628" y="824" width="26" height="240" rx="10" fill="url(#tubeG)" opacity="1" stroke="#1e0403" stroke-width="6"></rect>
<rect x="580" y="790" width="34" height="44" rx="9" fill="#a42a22" opacity="1" stroke="#1e0403" stroke-width="5"></rect>
<rect x="624" y="790" width="34" height="44" rx="9" fill="#a42a22" opacity="1" stroke="#1e0403" stroke-width="5"></rect>
<rect x="586" y="1046" width="22" height="60" rx="6" fill="#761b15" opacity="1" stroke="#1e0403" stroke-width="5"></rect>
<rect x="630" y="1046" width="22" height="60" rx="6" fill="#761b15" opacity="1" stroke="#1e0403" stroke-width="5"></rect>
</g>
<path d="M1024 140 L900 470 L806 830 L760 1010 L840 1330 L900 1620 L1024 1760 Z" fill="url(#hullG)" stroke="#1e0403" stroke-width="9"></path>
<path d="M1024 210 L936 500 L862 850 L830 1010 L890 1320 L936 1600 L1024 1700 Z" fill="url(#blueG)" stroke="#1e0403" stroke-width="6" opacity=".9"></path>
<path d="M1024 300 L960 560 L906 870 L888 1010 L930 1300 L964 1560 L1024 1640 Z" fill="url(#hullG2)" stroke="#1e0403" stroke-width="5"></path>
<path d="M900 470 L806 830 L760 1010" fill="none" stroke="#e34235" stroke-width="8" opacity=".55"></path>
<rect x="846" y="890" width="54" height="150" rx="6" fill="#a42a22" opacity="0.5" stroke="#1e0403" stroke-width="3"></rect>
<rect x="858" y="1380" width="50" height="160" rx="6" fill="#a42a22" opacity="0.4" stroke="#1e0403" stroke-width="3"></rect>
<rect x="830" y="880" width="40" height="34" rx="5" fill="#230504" opacity="0.7" stroke="#1e0403" stroke-width="3"></rect><rect x="834" y="924" width="40" height="34" rx="5" fill="#230504" opacity="0.7" stroke="#1e0403" stroke-width="3"></rect><rect x="838" y="968" width="40" height="34" rx="5" fill="#230504" opacity="0.7" stroke="#1e0403" stroke-width="3"></rect>
<path d="M676 1160 C716 1090 764 1080 792 1120 C812 1160 806 1290 786 1420 C760 1560 716 1590 690 1540 C668 1490 664 1290 676 1160 Z" fill="url(#podG)" stroke="#1e0403" stroke-width="8"></path>
<path d="M700 1200 C726 1150 758 1146 774 1176 C786 1210 782 1300 768 1400 C750 1500 722 1520 706 1486 C692 1450 692 1300 700 1200 Z" fill="#841f19" opacity=".35"></path>
<path d="M900 1620 L1024 1760 L1024 1860 L940 1800 Z" fill="url(#hullG2)" stroke="#1e0403" stroke-width="6"></path>
</g>
<use href="#halfL" transform="translate(2048 0) scale(-1 1)"></use>
<g id="spine">
<path d="M1024 120 L1062 190 L1040 470 L1008 470 L986 190 Z" fill="url(#blueG)" stroke="#1e0403" stroke-width="6"></path>
<path d="M968 520 L1080 520 L1094 700 L1074 900 L974 900 L954 700 Z" fill="url(#hullG2)" stroke="#1e0403" stroke-width="6"></path>
<rect x="988" y="560" width="72" height="300" rx="8" fill="#a81c22" opacity="0.6" stroke="#1e0403" stroke-width="3"></rect>
<path d="M962 940 L1086 940 L1098 1080 L1024 1130 L950 1080 Z" fill="url(#hullG2)" stroke="#1e0403" stroke-width="6"></path>
<path d="M950 1400 L1098 1400 L1108 1560 L1024 1700 L940 1560 Z" fill="url(#hullG2)" stroke="#1e0403" stroke-width="6"></path>
<rect x="978" y="1436" width="92" height="110" rx="6" fill="#a42a22" opacity="0.5" stroke="#1e0403" stroke-width="3"></rect>
<path d="M994 1470 L1054 1470 L1044 1560 L1004 1560 Z" fill="#e34235" opacity=".7" stroke="#1e0403" stroke-width="4"></path>
<circle cx="1024" cy="1245" r="224" fill="url(#embPlate)" stroke="#1e0403" stroke-width="7"></circle>
<circle cx="1024" cy="1245" r="196" fill="#a81c22" stroke="#1e0403" stroke-width="8"></circle>
<circle cx="1024" cy="1245" r="182" fill="none" stroke="#ffd633" stroke-width="14" opacity=".95"></circle>
<circle cx="1024" cy="1245" r="160" fill="#a81c22"></circle>
<g stroke="#ffd633" stroke-width="6" opacity=".75">
<line x1="1180" y1="1245" x2="1156" y2="1245"></line><line x1="1024" y1="1401" x2="1024" y2="1377"></line><line x1="868" y1="1245" x2="892" y2="1245"></line><line x1="1024" y1="1089" x2="1024" y2="1113"></line></g>
<text x="1024" y="1333" text-anchor="middle" font-family="Arial Black, Arial, Helvetica, sans-serif" font-weight="900" font-size="258" fill="#ffffff">L</text>
<text x="1024" y="1333" text-anchor="middle" font-family="Arial Black, Arial, Helvetica, sans-serif" font-weight="900" font-size="258" fill="none" stroke="#7d0f14" stroke-width="6" opacity=".85">L</text></g>
<path d="M72 1668 L4 1812 L148 1744 Z" fill="#8c1218" stroke="#12040a" stroke-width="7"></path><path d="M131 1685 L82 1635 L140 1676 Z" fill="#c4222a" stroke="#12040a" stroke-width="5"></path><path d="M148 1668 L99 1618 L158 1658 Z" fill="#c4222a" stroke="#12040a" stroke-width="5"></path><path d="M164 1652 L115 1602 L173 1643 Z" fill="#c4222a" stroke="#12040a" stroke-width="5"></path><path d="M96 1692 L4 1812" stroke="#ffd633" stroke-width="6" opacity=".9"></path></g>
<g id="glow"><circle cx="1024" cy="1245" r="316" fill="url(#embRing)" opacity=".55"></circle></g>
</svg>