<svg xmlns="http://www.w3.org/2000/svg" viewBox="0 0 2048 2048" width="2048" height="2048" xmlns:c2pa="http://c2pa.org/manifest"><metadata><c2pa:manifest>AAAWgmp1bWIAAAAeanVtZGMycGEAEQAQgAAAqgA4m3EDYzJwYQAAABZcanVtYgAAAEdqdW1kYzJtYQARABCAAACqADibcQN1cm46YzJwYTo1MmQzMjFjZi0yNGI2LTQ1OGItODk4OC0xMWFkNzMxYmVjMmUAAAADl2p1bWIAAAApanVtZGMyYXMAEQAQgAAAqgA4m3EDYzJwYS5hc3NlcnRpb25zAAAAALxqdW1iAAAARGp1bWRjYm9yABEAEIAAAKoAOJtxE2MycGEuaW5ncmVkaWVudC52MwAAAAAYYzJzaPjvEZaXHeEYEnGg4arFHlkAAABwY2JvcqNpZGM6Zm9ybWF0bWltYWdlL3N2Zyt4bWxqaW5zdGFuY2VJRHgseG1wOmlpZDoyNjI4YTgzNC0zMmM2LTRjNmQtOGE1Mi1lZjY4NTdlZjMxYjNscmVsYXRpb25zaGlwaHBhcmVudE9mAAAB4mp1bWIAAABBanVtZGNib3IAEQAQgAAAqgA4m3ETYzJwYS5hY3Rpb25zLnYyAAAAABhjMnNo0a/Uyth7WNBdzfImzR5WFgAAAZljYm9yomdhY3Rpb25zgqJmYWN0aW9ua2MycGEub3BlbmVkanBhcmFtZXRlcnOha2luZ3JlZGllbnRzgaJjdXJseC1zZWxmI2p1bWJmPWMycGEuYXNzZXJ0aW9ucy9jMnBhLmluZ3JlZGllbnQudjNkaGFzaFggBeRmNxwn/oioMQ7bxmbub1fXjaSI58q5PgWcUe8h3jKkZmFjdGlvbngdY29tLmFudGhyb3BpYy5jbGF1ZGUucHJvdmlkZWRqcGFyYW1ldGVyc6F4H2NvbS5hbnRocm9waWMub3JpZ2luLWNvbmZpZGVuY2VndW5rbm93bmtkZXNjcmlwdGlvbnhmQ2xhdWRlIHByb3ZpZGVkIHRoaXMgZmlsZSBhdCB0aGUgcmVxdWVzdCBvZiBhIHVzZXIgYW5kIG1heSBoYXZlIGNyZWF0ZWQgb3IgbW9kaWZpZWQgdGhlIGZpbGUgY29udGVudHMubXNvZnR3YXJlQWdlbnShZG5hbWVmQ2xhdWRlcmFsbEFjdGlvbnNJbmNsdWRlZPUAAADIanVtYgAAAEBqdW1kY2JvcgARABCAAACqADibcRNjMnBhLmhhc2guZGF0YQAAAAAYYzJzaBDjlwsl3dwuKl5Wucoy/d8AAACAY2JvcqVjYWxnZnNoYTI1NmNwYWRNAAAAAAAAAAAAAAAAAGRoYXNoWCDcXVAxHK1j8ovd9EjLv2lQg+gWnNTdbeKEUWYqv2BPlWRuYW1lbmp1bWJmIG1hbmlmZXN0amV4Y2x1c2lvbnOBomVzdGFydBiaZmxlbmd0aBkeBAAAAj5qdW1iAAAAJ2p1bWRjMmNsABEAEIAAAKoAOJtxA2MycGEuY2xhaW0udjIAAAACD2Nib3KlY2FsZ2ZzaGEyNTZpc2lnbmF0dXJleE1zZWxmI2p1bWJmPS9jMnBhL3VybjpjMnBhOjUyZDMyMWNmLTI0YjYtNDU4Yi04OTg4LTExYWQ3MzFiZWMyZS9jMnBhLnNpZ25hdHVyZWppbnN0YW5jZUlEeCx4bXA6aWlkOjQ1OGRlNDBhLWExYWYtNDFkYi04OTBkLTNhNGQ3NDU4M2MxNXJjcmVhdGVkX2Fzc2VydGlvbnODomN1cmx4LXNlbGYjanVtYmY9YzJwYS5hc3NlcnRpb25zL2MycGEuaW5ncmVkaWVudC52M2RoYXNoWCAF5GY3HCf+iKgxDtvGZu5vV9eNpIjnyrk+BZxR7yHeMqJjdXJseCpzZWxmI2p1bWJmPWMycGEuYXNzZXJ0aW9ucy9jMnBhLmFjdGlvbnMudjJkaGFzaFggFUle0DEZnk0h3rS++gpqpnrjzNA17KdwmDWltj4erwyiY3VybHgpc2VsZiNqdW1iZj1jMnBhLmFzc2VydGlvbnMvYzJwYS5oYXNoLmRhdGFkaGFzaFggeLYZRb2EhR8Jwg1crYAF2HJEauQ2XrlBiqZK0Q0CUEF0Y2xhaW1fZ2VuZXJhdG9yX2luZm+jZG5hbWVvQW50aHJvcGljIEZpbGVzZ3ZlcnNpb25lMS4wLjBrc3BlY1ZlcnNpb25lMi40LjAAABA4anVtYgAAAChqdW1kYzJjcwARABCAAACqADibcQNjMnBhLnNpZ25hdHVyZQAAABAIY2JvctKEWQISogEmGCFZAgowggIGMIIBjaADAgECAhRA5aAK7sI50L64g/oGQgU9Z1UTADAKBggqhkjOPQQDAzBJMRcwFQYDVQQKEw5BbnRocm9waWMsIFBCQzEuMCwGA1UEAxMlQW50aHJvcGljIENvbnRlbnQgQ3JlZGVudGlhbHMgUm9vdCBDQTAeFw0yNjA4MDcxODQzNTZaFw0yODA4MDYxOTQzNTZaMEQxFzAVBgNVBAoTDkFudGhyb3BpYywgUEJDMSkwJwYDVQQDEyBBbnRocm9waWMgQ2xhdWRlIENvbnRlbnQgU2lnbmluZzBZMBMGByqGSM49AgEGCCqGSM49AwEHA0IABJh6CmvLUBgFFNU0vUKlOVtE6djd17L5SuwX0LemFisBM3dkd/3cyjxFA3Qo5S46fX0/ihY0VZ7mfb9KF703t5OjWDBWMA4GA1UdDwEB/wQEAwIHgDAVBgNVHSUEDjAMBgorBgEEAYPoXgIBMAwGA1UdEwEB/wQCMAAwHwYDVR0jBBgwFoAUzlHiBIFOZFsj+OPEz5o+nMHXXMIwCgYIKoZIzj0EAwMDZwAwZAIwMXMdFJ4BetLLVY7ORuE9noqbbAZOZn/aArXyTwFAZfKrPzxF2vPoJNf1+UCdg1XGAjBwX1zd9WGqYkqmL5SFqw1QySjr1zJfpJM9+1rdDwSPLMOPOjKuiXjoU/pUUeG9RwmhY3BhZFkNngAAAAAAAAAAAAAAAAAAAAAAAAAAAAAAAAAAAAAAAAAAAAAAAAAAAAAAAAAAAAAAAAAAAAAAAAAAAAAAAAAAAAAAAAAAAAAAAAAAAAAAAAAAAAAAAAAAAAAAAAAAAAAAAAAAAAAAAAAAAAAAAAAAAAAAAAAAAAAAAAAAAAAAAAAAAAAAAAAAAAAAAAAAAAAAAAAAAAAAAAAAAAAAAAAAAAAAAAAAAAAAAAAAAAAAAAAAAAAAAAAAAAAAAAAAAAAAAAAAAAAAAAAAAAAAAAAAAAAAAAAAAAAAAAAAAAAAAAAAAAAAAAAAAAAAAAAAAAAAAAAAAAAAAAAAAAAAAAAAAAAAAAAAAAAAAAAAAAAAAAAAAAAAAAAAAAAAAAAAAAAAAAAAAAAAAAAAAAAAAAAAAAAAAAAAAAAAAAAAAAAAAAAAAAAAAAAAAAAAAAAAAAAAAAAAAAAAAAAAAAAAAAAAAAAAAAAAAAAAAAAAAAAAAAAAAAAAAAAAAAAAAAAAAAAAAAAAAAAAAAAAAAAAAAAAAAAAAAAAAAAAAAAAAAAAAAAAAAAAAAAAAAAAAAAAAAAAAAAAAAAAAAAAAAAAAAAAAAAAAAAAAAAAAAAAAAAAAAAAAAAAAAAAAAAAAAAAAAAAAAAAAAAAAAAAAAAAAAAAAAAAAAAAAAAAAAAAAAAAAAAAAAAAAAAAAAAAAAAAAAAAAAAAAAAAAAAAAAAAAAAAAAAAAAAAAAAAAAAAAAAAAAAAAAAAAAAAAAAAAAAAAAAAAAAAAAAAAAAAAAAAAAAAAAAAAAAAAAAAAAAAAAAAAAAAAAAAAAAAAAAAAAAAAAAAAAAAAAAAAAAAAAAAAAAAAAAAAAAAAAAAAAAAAAAAAAAAAAAAAAAAAAAAAAAAAAAAAAAAAAAAAAAAAAAAAAAAAAAAAAAAAAAAAAAAAAAAAAAAAAAAAAAAAAAAAAAAAAAAAAAAAAAAAAAAAAAAAAAAAAAAAAAAAAAAAAAAAAAAAAAAAAAAAAAAAAAAAAAAAAAAAAAAAAAAAAAAAAAAAAAAAAAAAAAAAAAAAAAAAAAAAAAAAAAAAAAAAAAAAAAAAAAAAAAAAAAAAAAAAAAAAAAAAAAAAAAAAAAAAAAAAAAAAAAAAAAAAAAAAAAAAAAAAAAAAAAAAAAAAAAAAAAAAAAAAAAAAAAAAAAAAAAAAAAAAAAAAAAAAAAAAAAAAAAAAAAAAAAAAAAAAAAAAAAAAAAAAAAAAAAAAAAAAAAAAAAAAAAAAAAAAAAAAAAAAAAAAAAAAAAAAAAAAAAAAAAAAAAAAAAAAAAAAAAAAAAAAAAAAAAAAAAAAAAAAAAAAAAAAAAAAAAAAAAAAAAAAAAAAAAAAAAAAAAAAAAAAAAAAAAAAAAAAAAAAAAAAAAAAAAAAAAAAAAAAAAAAAAAAAAAAAAAAAAAAAAAAAAAAAAAAAAAAAAAAAAAAAAAAAAAAAAAAAAAAAAAAAAAAAAAAAAAAAAAAAAAAAAAAAAAAAAAAAAAAAAAAAAAAAAAAAAAAAAAAAAAAAAAAAAAAAAAAAAAAAAAAAAAAAAAAAAAAAAAAAAAAAAAAAAAAAAAAAAAAAAAAAAAAAAAAAAAAAAAAAAAAAAAAAAAAAAAAAAAAAAAAAAAAAAAAAAAAAAAAAAAAAAAAAAAAAAAAAAAAAAAAAAAAAAAAAAAAAAAAAAAAAAAAAAAAAAAAAAAAAAAAAAAAAAAAAAAAAAAAAAAAAAAAAAAAAAAAAAAAAAAAAAAAAAAAAAAAAAAAAAAAAAAAAAAAAAAAAAAAAAAAAAAAAAAAAAAAAAAAAAAAAAAAAAAAAAAAAAAAAAAAAAAAAAAAAAAAAAAAAAAAAAAAAAAAAAAAAAAAAAAAAAAAAAAAAAAAAAAAAAAAAAAAAAAAAAAAAAAAAAAAAAAAAAAAAAAAAAAAAAAAAAAAAAAAAAAAAAAAAAAAAAAAAAAAAAAAAAAAAAAAAAAAAAAAAAAAAAAAAAAAAAAAAAAAAAAAAAAAAAAAAAAAAAAAAAAAAAAAAAAAAAAAAAAAAAAAAAAAAAAAAAAAAAAAAAAAAAAAAAAAAAAAAAAAAAAAAAAAAAAAAAAAAAAAAAAAAAAAAAAAAAAAAAAAAAAAAAAAAAAAAAAAAAAAAAAAAAAAAAAAAAAAAAAAAAAAAAAAAAAAAAAAAAAAAAAAAAAAAAAAAAAAAAAAAAAAAAAAAAAAAAAAAAAAAAAAAAAAAAAAAAAAAAAAAAAAAAAAAAAAAAAAAAAAAAAAAAAAAAAAAAAAAAAAAAAAAAAAAAAAAAAAAAAAAAAAAAAAAAAAAAAAAAAAAAAAAAAAAAAAAAAAAAAAAAAAAAAAAAAAAAAAAAAAAAAAAAAAAAAAAAAAAAAAAAAAAAAAAAAAAAAAAAAAAAAAAAAAAAAAAAAAAAAAAAAAAAAAAAAAAAAAAAAAAAAAAAAAAAAAAAAAAAAAAAAAAAAAAAAAAAAAAAAAAAAAAAAAAAAAAAAAAAAAAAAAAAAAAAAAAAAAAAAAAAAAAAAAAAAAAAAAAAAAAAAAAAAAAAAAAAAAAAAAAAAAAAAAAAAAAAAAAAAAAAAAAAAAAAAAAAAAAAAAAAAAAAAAAAAAAAAAAAAAAAAAAAAAAAAAAAAAAAAAAAAAAAAAAAAAAAAAAAAAAAAAAAAAAAAAAAAAAAAAAAAAAAAAAAAAAAAAAAAAAAAAAAAAAAAAAAAAAAAAAAAAAAAAAAAAAAAAAAAAAAAAAAAAAAAAAAAAAAAAAAAAAAAAAAAAAAAAAAAAAAAAAAAAAAAAAAAAAAAAAAAAAAAAAAAAAAAAAAAAAAAAAAAAAAAAAAAAAAAAAAAAAAAAAAAAAAAAAAAAAAAAAAAAAAAAAAAAAAAAAAAAAAAAAAAAAAAAAAAAAAAAAAAAAAAAAAAAAAAAAAAAAAAAAAAAAAAAAAAAAAAAAAAAAAAAAAAAAAAAAAAAAAAAAAAAAAAAAAAAAAAAAAAAAAAAAAAAAAAAAAAAAAAAAAAAAAAAAAAAAAAAAAAAAAAAAAAAAAAAAAAAAAAAAAAAAAAAAAAAAAAAAAAAAAAAAAAAAAAAAAAAAAAAAAAAAAAAAAAAAAAAAAAAAAAAAAAAAAAAAAAAAAAAAAAAAAAAAAAAAAAAAAAAAAAAAAAAAAAAAAAAAAAAAAAAAAAAAAAAAAAAAAAAAAAAAAAAAAAAAAAAAAAAAAAAAAAAAAAAAAAAAAAAAAAAAAAAAAAAAAAAAAAAAAAAAAAAAAAAAAAAAAAAAAAAAAAAAAAAAAAAAAAAAAAAAAAAAAAAAAAAAAAAAAAAAAAAAAAAAAAAAAAAAAAAAAAAAAAAAAAAAAAAAAAAAAAAAAAAAAAAAAAAAAAAAAAAAAAAAAAAAAAAAAAAAAAAAAAAAAAAAAAAAAAAAAAAAAAAAAAAAAAAAAAAAAAAAAAAAAAAAAAAAAAAAAAAAAAAAAAAAAAAAAAAAAAAAAAAAAAAAAAAAAAAAAAAAAAAAAAAAAAAAAAAAAAAAAAAAAAAAAAAAAAAAAAAAAAAAAAAAAAAAAAAAAAAAAAAAAAAAAAAAAAAAAAAAAAAAAAAAAAAAAAAAAAAAAAAAAAAAAAAAAAAAAAAAAAAAAAAAAAAAAAAAAAAAAAAAAAAAAAAAAAAAAAAAAAAAAAAAAAAAAAAAAAAAAAAAAAAAAAAAAAAAAAAAAAAAAAAAAAAAAAAAAAAAAAAAAAAAAAAAAAAAAAAAAAAAAAAAAAAAAAAAAAAAAAAAAAAAAAAAAAAAAAAAAAAAAAAAAAAAAAAAAAAAAAAAAAAAAAAAAAAAAAAAAAAAAAAAAAAAAAAAAAAAAAAAAAAAAAAAAAAAAAAAAAAAAAAAAAAAAAAAAAAAAAAAAAAAAAAAAAAAAAAAAAAAAAAAAAAAAAAAAAAAAAAAAAAAAAAAAAAAAAAAAAAAAAAAAAAAAAAAAAAAAAAAAAAAAAAAAAAAAAAAAAAAAAAAAAAAAAAAAAAAAAAAAAAAAAAAAAAAAAAAAAAAAAAAAAAAAAAAAAAAAAAAAAAAAAAAAAAAAAAAAAAAAAAAAAAAAAAAAAAAAAAAAAAAAAAAAAAAAAAAAAAAAAAAAAAAAAAAAAAAAAAAAAAAAAAAAAAAAAAAAAAAAAAAAAAAAAAAAAAAAAAAAAAAAAAAAAAAAAAAAAAAAAAAAAAAAAAAAAAAAAAAAAAAAAAAAAAAAAAAAAAAAAAAAAAAAAAAAAAAAAAAAAAAAAAAAAAAAAAAAAAAAAAAAAAAAAAAAAAAAAAAAAAAAAAAAAAAAAAAAAAAAAAAAAAAAAAAAAAAAAAAAAAAAAAAAAAAAAAAAAAAAAAAAAAAAAAAAAAAAAAAAAAAAAAAAAAAAAAAAAAAAAAAAAAAAAAAAAAAAAAAAAAAAAAAAAAAAAAAAAAAAAAAAAAAAAAAAAAAAAAAAAAAAAAAAAAAAAAAAAAAAAAAAAAAAAAAAAAAAAAAAAAAAAAAAAAAAAAAAAAAAAAAAAAAAAAAAAAAAAAAAAAAAAAAAAAAAAAAAAAAAAAAAAAAAAAAAAAAAAAAAAAAAAAAAAAAAAAAAAAAAAAAAAAAAAAAAAAAAAAAAAAAAAAAAAAAAAAAAAAAAAAAAAAAAAAAAAAAAAAAAAAPZYQEG3ZK4dyASUxiSD6nTcXgEg8/SDFAAsYnpXaeLEwNTFILW0NWgI8gi5lyLsdPdWS8stYCLxunoFNWRuJD4K+NQ=</c2pa:manifest></metadata>
<defs>
<linearGradient id="hullG" x1="0" y1="0" x2="1" y2="0">
<stop offset="0" stop-color="#772707"></stop><stop offset=".35" stop-color="#de5716"></stop><stop offset=".72" stop-color="#b64410"></stop><stop offset="1" stop-color="#a13a0d"></stop></linearGradient>
<linearGradient id="hullG2" x1="0" y1="0" x2="1" y2="0">
<stop offset="0" stop-color="#a13a0d"></stop><stop offset=".42" stop-color="#de5716"></stop><stop offset="1" stop-color="#b64410"></stop></linearGradient>
<linearGradient id="blueG" x1="0" y1="0" x2="1" y2="0">
<stop offset="0" stop-color="#1f0701"></stop><stop offset=".45" stop-color="#692106"></stop><stop offset="1" stop-color="#2d0c02"></stop></linearGradient>
<linearGradient id="doorG" x1="0" y1="0" x2="1" y2="0">
<stop offset="0" stop-color="#a13a0d"></stop><stop offset=".4" stop-color="#de5716"></stop><stop offset="1" stop-color="#b64410"></stop></linearGradient>
<radialGradient id="embPlate" cx="45%" cy="38%"><stop offset="0" stop-color="#f0661a"></stop><stop offset=".65" stop-color="#a93804"></stop><stop offset="1" stop-color="#210900"></stop></radialGradient>
<radialGradient id="embRing">
<stop offset=".58" stop-color="#f09057" stop-opacity="0"></stop><stop offset=".78" stop-color="#f09057" stop-opacity=".6"></stop><stop offset="1" stop-color="#f09057" stop-opacity="0"></stop></radialGradient>
</defs>

<g id="ship">
<g id="halfL">
<path d="M382 500 L382 1392 L402 1470 L738 1470 L758 1392 L758 500 Z" fill="url(#hullG)" stroke="#1b0601" stroke-width="9"></path>
<path d="M418 388 L722 388 L746 424 L746 500 L394 500 L394 424 Z" fill="url(#blueG)" stroke="#1b0601" stroke-width="8"></path>
<rect x="436" y="404" width="268" height="58" rx="6" fill="url(#hullG2)" opacity="1" stroke="#1b0601" stroke-width="3"></rect>
<rect x="486" y="368" width="68" height="26" rx="5" fill="#a13a0d" opacity="1" stroke="#1b0601" stroke-width="3"></rect>
<rect x="586" y="368" width="68" height="26" rx="5" fill="#a13a0d" opacity="1" stroke="#1b0601" stroke-width="3"></rect>

<rect x="436" y="560" width="126" height="368" rx="6" fill="url(#doorG)" opacity="1" stroke="#1b0601" stroke-width="3"></rect>
<rect x="570" y="560" width="126" height="368" rx="6" fill="url(#doorG)" opacity="1" stroke="#1b0601" stroke-width="3"></rect>
<path d="M462 582 L462 906" stroke="#1b0601" stroke-width="4" opacity=".55"></path>
<path d="M678 582 L678 906" stroke="#1b0601" stroke-width="4" opacity=".55"></path>
<path d="M492 590 l30 -18 l0 44 l-30 18 Z" fill="#a13a0d" opacity=".7" stroke="#1b0601" stroke-width="3"></path>
<path d="M648 898 l-30 18 l0 -44 l30 -18 Z" fill="#a13a0d" opacity=".7" stroke="#1b0601" stroke-width="3"></path>

<rect x="414" y="942" width="312" height="52" rx="5" fill="#a13a0d" opacity="0.95" stroke="#1b0601" stroke-width="3"></rect>
<rect x="420" y="952" width="44" height="32" rx="4" fill="#772707" opacity="1" stroke="#1b0601" stroke-width="3"></rect>
<rect x="676" y="952" width="44" height="32" rx="4" fill="#772707" opacity="1" stroke="#1b0601" stroke-width="3"></rect>
<path d="M492 950 l40 36 M532 950 l-40 36 M572 950 l40 36 M612 950 l-40 36 M652 950 l40 36" stroke="#1b0601" stroke-width="5" opacity=".8"></path>

<rect x="436" y="1010" width="126" height="300" rx="6" fill="url(#doorG)" opacity="1" stroke="#1b0601" stroke-width="3"></rect>
<rect x="570" y="1010" width="126" height="300" rx="6" fill="url(#doorG)" opacity="1" stroke="#1b0601" stroke-width="3"></rect>
<path d="M462 1032 L462 1288" stroke="#1b0601" stroke-width="4" opacity=".55"></path>
<path d="M678 1032 L678 1288" stroke="#1b0601" stroke-width="4" opacity=".55"></path>
<path d="M492 1040 l30 -18 l0 44 l-30 18 Z" fill="#a13a0d" opacity=".7" stroke="#1b0601" stroke-width="3"></path>
<path d="M648 1280 l-30 18 l0 -44 l30 -18 Z" fill="#a13a0d" opacity=".7" stroke="#1b0601" stroke-width="3"></path>
<rect x="436" y="1336" width="268" height="96" rx="8" fill="url(#hullG2)" opacity="1" stroke="#1b0601" stroke-width="3"></rect>
<path d="M492 1360 l40 -16 l112 0 l40 16 l0 44 l-40 16 l-112 0 l-40 -16 Z" fill="#a13a0d" opacity=".8" stroke="#1b0601" stroke-width="4"></path>

<rect x="414" y="520" width="312" height="52" rx="5" fill="#a13a0d" opacity="0.95" stroke="#1b0601" stroke-width="3"></rect>
<rect x="420" y="530" width="44" height="32" rx="4" fill="#772707" opacity="1" stroke="#1b0601" stroke-width="3"></rect>
<rect x="676" y="530" width="44" height="32" rx="4" fill="#772707" opacity="1" stroke="#1b0601" stroke-width="3"></rect>
<path d="M492 528 l40 36 M532 528 l-40 36 M572 528 l40 36 M612 528 l-40 36 M652 528 l40 36" stroke="#1b0601" stroke-width="5" opacity=".8"></path>

<rect x="414" y="1300" width="312" height="52" rx="5" fill="#a13a0d" opacity="0.95" stroke="#1b0601" stroke-width="3"></rect>
<rect x="420" y="1310" width="44" height="32" rx="4" fill="#772707" opacity="1" stroke="#1b0601" stroke-width="3"></rect>
<rect x="676" y="1310" width="44" height="32" rx="4" fill="#772707" opacity="1" stroke="#1b0601" stroke-width="3"></rect>
<path d="M492 1308 l40 36 M532 1308 l-40 36 M572 1308 l40 36 M612 1308 l-40 36 M652 1308 l40 36" stroke="#1b0601" stroke-width="5" opacity=".8"></path>
<path d="M402 1470 L436 1546 L704 1546 L738 1470 Z" fill="url(#blueG)" stroke="#1b0601" stroke-width="7"></path>
<rect x="446" y="1476" width="72" height="62" rx="4" fill="#a13a0d" opacity="0.85" stroke="#1b0601" stroke-width="3"></rect><rect x="542" y="1476" width="72" height="62" rx="4" fill="#a13a0d" opacity="0.85" stroke="#1b0601" stroke-width="3"></rect><rect x="638" y="1476" width="72" height="62" rx="4" fill="#a13a0d" opacity="0.85" stroke="#1b0601" stroke-width="3"></rect>
<path d="M382 500 L382 1392" fill="none" stroke="#de5716" stroke-width="7" opacity=".5"></path>
<circle cx="418" cy="540" r="6" fill="#a13a0d" stroke="#1b0601" stroke-width="2.5"></circle><circle cx="722" cy="540" r="6" fill="#a13a0d" stroke="#1b0601" stroke-width="2.5"></circle><circle cx="418" cy="1320" r="6" fill="#a13a0d" stroke="#1b0601" stroke-width="2.5"></circle><circle cx="722" cy="1320" r="6" fill="#a13a0d" stroke="#1b0601" stroke-width="2.5"></circle><circle cx="418" cy="930" r="6" fill="#a13a0d" stroke="#1b0601" stroke-width="2.5"></circle><circle cx="722" cy="930" r="6" fill="#a13a0d" stroke="#1b0601" stroke-width="2.5"></circle>
<rect x="744" y="700" width="64" height="190" rx="6" fill="url(#hullG2)" opacity="1" stroke="#1b0601" stroke-width="7"></rect>
<rect x="744" y="1080" width="64" height="190" rx="6" fill="url(#hullG2)" opacity="1" stroke="#1b0601" stroke-width="7"></rect>
<path d="M756 720 h40 M756 760 h40 M756 800 h40" stroke="#1b0601" stroke-width="4" opacity=".6"></path>
<path d="M756 1100 h40 M756 1140 h40 M756 1180 h40" stroke="#1b0601" stroke-width="4" opacity=".6"></path>
<path d="M1024 108 L950 116 L900 156 L878 236 L868 340 L864 470 L1024 470 Z" fill="url(#hullG)" stroke="#1b0601" stroke-width="9"></path>
<path d="M1024 160 L968 168 L932 200 L916 268 L908 360 L906 462 L1024 462 Z" fill="url(#blueG)" stroke="#1b0601" stroke-width="6"></path>
<path d="M1024 232 L990 240 L972 268 L964 330 L962 452 L1024 452 Z" fill="url(#hullG2)" stroke="#1b0601" stroke-width="5"></path>
<path d="M1024 456 L864 456 L820 486 L798 560 L790 700 L790 1400 L802 1476 L840 1520 L1024 1520 Z" fill="url(#hullG)" stroke="#1b0601" stroke-width="9"></path>
<path d="M1024 520 L858 520 L832 560 L822 660 L822 1360 L836 1440 L868 1478 L1024 1478 Z" fill="url(#blueG)" stroke="#1b0601" stroke-width="6" opacity=".92"></path>
<path d="M1024 596 L900 596 L878 640 L872 720 L872 1320 L888 1396 L1024 1420 Z" fill="url(#hullG2)" stroke="#1b0601" stroke-width="5"></path>
<rect x="806" y="600" width="86" height="150" rx="5" fill="#a13a0d" opacity="0.7" stroke="#1b0601" stroke-width="3"></rect>
<rect x="806" y="800" width="86" height="120" rx="5" fill="#2d0c02" opacity="0.6" stroke="#1b0601" stroke-width="3"></rect>
<rect x="806" y="1160" width="86" height="150" rx="5" fill="#a13a0d" opacity="0.6" stroke="#1b0601" stroke-width="3"></rect>
<rect x="896" y="660" width="72" height="120" rx="5" fill="#a13a0d" opacity="0.55" stroke="#1b0601" stroke-width="3"></rect>
<rect x="896" y="1240" width="72" height="140" rx="5" fill="#a13a0d" opacity="0.5" stroke="#1b0601" stroke-width="3"></rect>
<path d="M864 456 L820 486 L798 560" fill="none" stroke="#de5716" stroke-width="8" opacity=".55"></path>
<path d="M900 156 L878 236 L868 340" fill="none" stroke="#de5716" stroke-width="6" opacity=".5"></path>
<circle cx="856" cy="560" r="6" fill="#a13a0d" stroke="#1b0601" stroke-width="2.5"></circle><circle cx="848" cy="900" r="6" fill="#a13a0d" stroke="#1b0601" stroke-width="2.5"></circle><circle cx="848" cy="1280" r="6" fill="#a13a0d" stroke="#1b0601" stroke-width="2.5"></circle><circle cx="930" cy="640" r="6" fill="#a13a0d" stroke="#1b0601" stroke-width="2.5"></circle><circle cx="930" cy="1340" r="6" fill="#a13a0d" stroke="#1b0601" stroke-width="2.5"></circle>
<path d="M1024 1520 L840 1520 L800 1580 L790 1700 L806 1810 L860 1880 L1024 1908 Z" fill="url(#hullG)" stroke="#1b0601" stroke-width="9"></path>
<path d="M1024 1576 L868 1576 L840 1626 L832 1720 L846 1810 L890 1866 L1024 1888 Z" fill="url(#blueG)" stroke="#1b0601" stroke-width="6" opacity=".9"></path>
<rect x="852" y="1640" width="90" height="120" rx="6" fill="#a13a0d" opacity="0.6" stroke="#1b0601" stroke-width="3"></rect>
<rect x="866" y="1790" width="80" height="64" rx="5" fill="#a13a0d" opacity="0.5" stroke="#1b0601" stroke-width="3"></rect>
<circle cx="884" cy="1610" r="6" fill="#a13a0d" stroke="#1b0601" stroke-width="2.5"></circle><circle cx="876" cy="1760" r="6" fill="#a13a0d" stroke="#1b0601" stroke-width="2.5"></circle></g>
<use href="#halfL" transform="translate(2048 0) scale(-1 1)"></use>
<g id="spine">
<path d="M956 120 L1092 120 L1104 200 L1098 300 L950 300 L944 200 Z" fill="url(#hullG2)" stroke="#1b0601" stroke-width="7"></path>
<rect x="978" y="150" width="92" height="120" rx="5" fill="#a13a0d" opacity="0.7" stroke="#1b0601" stroke-width="3"></rect>
<path d="M962 330 L1086 330 L1094 430 L1080 470 L968 470 L954 430 Z" fill="url(#blueG)" stroke="#1b0601" stroke-width="6"></path>
<path d="M968 500 L1080 500 L1092 620 L1078 700 L970 700 L956 620 Z" fill="url(#hullG2)" stroke="#1b0601" stroke-width="6"></path>
<rect x="986" y="530" width="76" height="140" rx="5" fill="#a13a0d" opacity="0.6" stroke="#1b0601" stroke-width="3"></rect>
<path d="M950 1300 L1098 1300 L1108 1420 L1092 1500 L956 1500 L940 1420 Z" fill="url(#hullG2)" stroke="#1b0601" stroke-width="6"></path>
<rect x="972" y="1330" width="104" height="140" rx="5" fill="#a13a0d" opacity="0.55" stroke="#1b0601" stroke-width="3"></rect>
<path d="M958 1560 L1090 1560 L1102 1700 L1086 1810 L962 1810 L946 1700 Z" fill="url(#hullG2)" stroke="#1b0601" stroke-width="6"></path>
<rect x="980" y="1600" width="88" height="170" rx="5" fill="#bd4207" opacity="0.5" stroke="#1b0601" stroke-width="3"></rect>
<path d="M964 1852 L1084 1852 L1072 1936 L976 1936 Z" fill="url(#blueG)" stroke="#1b0601" stroke-width="6"></path>
<circle cx="1024" cy="1000" r="230" fill="url(#embPlate)" stroke="#1b0601" stroke-width="7"></circle>
<circle cx="1024" cy="1000" r="196" fill="#bd4207" stroke="#1b0601" stroke-width="8"></circle>
<circle cx="1024" cy="1000" r="184" fill="none" stroke="#f09057" stroke-width="9" opacity=".95"></circle>
<circle cx="1024" cy="1000" r="166" fill="#bd4207"></circle>
<text x="1024" y="1086" text-anchor="middle" font-family="Arial Black, Arial, Helvetica, sans-serif" font-weight="900" font-size="252" fill="#f09e73">U</text>
<text x="1024" y="1086" text-anchor="middle" font-family="Arial Black, Arial, Helvetica, sans-serif" font-weight="900" font-size="252" fill="none" stroke="#732402" stroke-width="6" opacity=".85">U</text></g>
<path d="M335 1505 L294 1626 L327 1655 L417 1576 Z" fill="#b83d05" stroke="#0e0701" stroke-width="7"></path><path d="M402 1523 L338 1468 L415 1508 Z" fill="#da560a" stroke="#0e0701" stroke-width="5"></path><path d="M423 1499 L359 1444 L436 1484 Z" fill="#da560a" stroke="#0e0701" stroke-width="5"></path><path d="M364 1530 L305 1635" stroke="#f09057" stroke-width="6" opacity=".85"></path></g>
<g id="glow">
<circle cx="1024" cy="1000" r="306" fill="url(#embRing)" opacity=".6"></circle>
</g>
</svg>